<?xml version="1.0" standalone="no"?><!DOCTYPE svg PUBLIC "-//W3C//DTD SVG 1.1//EN" "http://www.w3.org/Graphics/SVG/1.1/DTD/svg11.dtd"><svg t="1594985949546" class="icon" viewBox="0 0 1024 1024" version="1.1" xmlns="http://www.w3.org/2000/svg" p-id="6947" xmlns:xlink="http://www.w3.org/1999/xlink" width="100" height="100"><defs><style type="text/css"></style></defs><path d="M640 554.666667h213.333333a85.333333 85.333333 0 0 1 85.333334 85.333333v213.333333a85.333333 85.333333 0 0 1-85.333334 85.333334h-213.333333a85.333333 85.333333 0 0 1-85.333333-85.333334v-213.333333a85.333333 85.333333 0 0 1 85.333333-85.333333z m0 85.333333v213.333333h213.333333v-213.333333h-213.333333zM469.333333 170.666667v682.666666a85.333333 85.333333 0 0 1-85.333333 85.333334H170.666667a85.333333 85.333333 0 0 1-85.333334-85.333334V170.666667a85.333333 85.333333 0 0 1 85.333334-85.333334h213.333333a85.333333 85.333333 0 0 1 85.333333 85.333334zM384 170.666667H170.666667v682.666666h213.333333V170.666667z m256-85.333334h213.333333a85.333333 85.333333 0 0 1 85.333334 85.333334v213.333333a85.333333 85.333333 0 0 1-85.333334 85.333333h-213.333333a85.333333 85.333333 0 0 1-85.333333-85.333333V170.666667a85.333333 85.333333 0 0 1 85.333333-85.333334z m0 85.333334v213.333333h213.333333V170.666667h-213.333333z" p-id="6948" fill="#1296db"></path></svg>