<?xml version="1.0" standalone="no"?><!DOCTYPE svg PUBLIC "-//W3C//DTD SVG 1.1//EN" "http://www.w3.org/Graphics/SVG/1.1/DTD/svg11.dtd"><svg t="1594983444668" class="icon" viewBox="0 0 1056 1024" version="1.1" xmlns="http://www.w3.org/2000/svg" p-id="5011" xmlns:xlink="http://www.w3.org/1999/xlink" width="103.125" height="100"><defs><style type="text/css"></style></defs><path d="M1023.399201 163.074146h-155.151516V55.458414a49.516441 49.516441 0 0 0-99.032882 0v107.615732h-481.960025V49.516441a49.516441 49.516441 0 1 0-99.032882 0v113.557705H33.07038A33.010961 33.010961 0 0 0 0.05942 198.065764v792.263056a33.010961 33.010961 0 0 0 33.01096 33.010961h990.328821a33.010961 33.010961 0 0 0 33.01096-33.010961V198.065764a33.010961 33.010961 0 0 0-33.01096-34.991618zM204.067157 315.584784h514.310767a25.08833 25.08833 0 0 1 0 49.516441H204.067157a25.08833 25.08833 0 0 1 0-49.516441z m0 180.239845h267.388781a25.08833 25.08833 0 0 1 0 49.516441h-264.087685a25.08833 25.08833 0 0 1 0-49.516441z m0 180.239846h441.686653a25.08833 25.08833 0 1 1 0 49.516441H204.067157a25.08833 25.08833 0 0 1 0-49.516441z m639.092198 229.756286H204.067157a25.08833 25.08833 0 0 1 0-49.516441h639.092198a25.08833 25.08833 0 1 1 0 49.516441z" p-id="5012" fill="#13227a"></path></svg>