<?xml version="1.0" standalone="no"?><!DOCTYPE svg PUBLIC "-//W3C//DTD SVG 1.1//EN" "http://www.w3.org/Graphics/SVG/1.1/DTD/svg11.dtd"><svg t="1594983369723" class="icon" viewBox="0 0 1024 1024" version="1.1" xmlns="http://www.w3.org/2000/svg" p-id="4250" xmlns:xlink="http://www.w3.org/1999/xlink" width="100" height="100"><defs><style type="text/css"></style></defs><path d="M112 16h736v992H112z" fill="#EDF2F9" p-id="4251"></path><path d="M480 672a32 32 0 1 0-0.016-64.016A32 32 0 0 0 480 672z m0 112v16a16 16 0 1 0 32 0v-48a32 32 0 1 0-32 32z m113.472-54.528A15.68 15.68 0 0 0 592 736v96h-16a16 16 0 1 0 0 32h32a16 16 0 0 0 16-16v-104.64l27.296-27.296c3.328-3.328 4.864-7.728 4.752-12.112a16.48 16.48 0 0 0-4.784-12.208L624 664.48V560a16 16 0 0 0-16-16h-32a16 16 0 1 0 0 32h16v95.808c-0.192 4.48 1.312 9.008 4.736 12.432l19.824 19.824-19.36 19.36c-1.76 1.76-2.928 3.84-3.728 6.048zM336 743.36V848a16 16 0 0 0 16 16h32a16 16 0 1 0 0-32h-16v-96a15.68 15.68 0 0 0-1.472-6.528 16 16 0 0 0-3.728-6.032l-19.36-19.36 19.824-19.824c3.424-3.424 4.928-7.952 4.736-12.432V576h16a16 16 0 1 0 0-32h-32a16 16 0 0 0-16 16v104.48l-27.264 27.264c-3.36 3.36-4.912 7.792-4.784 12.208-0.128 4.368 1.424 8.784 4.752 12.112L336 743.36zM896 128h-32V32a32 32 0 0 0-32-32H128a32 32 0 0 0-32 32v960a32 32 0 0 0 32 32h704a32 32 0 0 0 32-32V416h32a32 32 0 0 0 32-32V160a32 32 0 0 0-32-32z m-64 0H448a32 32 0 0 0-32 32v224a32 32 0 0 0 32 32h384v576H128V32h704v96z" fill="#8592A5" p-id="4252"></path><path d="M648.112 285.76c0 6.496-0.816 12.416-2.432 17.744-1.632 5.344-4.08 9.904-7.36 13.712s-7.408 6.784-12.352 8.896a44.8 44.8 0 0 1-17.52 3.152 75.808 75.808 0 0 1-18.24-2.08l1.44-15.76a4.768 4.768 0 0 1 1.664-3.36 6.048 6.048 0 0 1 4.112-1.28c0.912 0 2.032 0.16 3.36 0.432 1.344 0.304 2.944 0.448 4.816 0.448 2.592 0 4.88-0.368 6.832-1.088s3.568-1.904 4.848-3.6 2.24-3.872 2.88-6.592 0.96-6.096 0.96-10.096v-74.88h27.04v74.352zM732.288 235.12c-0.816 1.28-1.664 2.24-2.528 2.88s-2.016 0.96-3.408 0.96a8.224 8.224 0 0 1-3.952-1.152c-1.424-0.768-3.008-1.648-4.8-2.592a38.56 38.56 0 0 0-6.128-2.608 24.64 24.64 0 0 0-7.84-1.152c-5.056 0-8.848 1.072-11.312 3.248a11.008 11.008 0 0 0-3.712 8.752c0 2.336 0.752 4.304 2.24 5.84 1.504 1.552 3.456 2.88 5.888 4 2.416 1.12 5.184 2.144 8.32 3.072s6.32 1.968 9.568 3.12c3.248 1.136 6.432 2.48 9.568 4.032s5.888 3.536 8.32 5.92c2.432 2.4 4.384 5.328 5.872 8.768 1.504 3.44 2.256 7.584 2.256 12.432 0 5.392-0.944 10.416-2.816 15.12a35.344 35.344 0 0 1-8.112 12.288c-3.552 3.488-7.92 6.24-13.104 8.24a49.216 49.216 0 0 1-17.728 3.008c-3.632 0-7.312-0.368-11.072-1.12-3.744-0.752-7.408-1.792-10.928-3.152s-6.832-2.976-9.92-4.848a41.792 41.792 0 0 1-8.08-6.24l8-12.64a6.72 6.72 0 0 1 2.48-2.336 7.136 7.136 0 0 1 3.44-0.88c1.6 0 3.216 0.512 4.848 1.52 1.632 1.008 3.472 2.144 5.52 3.36 2.048 1.232 4.416 2.352 7.072 3.36 2.672 1.008 5.808 1.536 9.44 1.536 4.912 0 8.72-1.072 11.44-3.248 2.72-2.16 4.096-5.584 4.096-10.288a9.6 9.6 0 0 0-2.256-6.624c-1.488-1.712-3.44-3.12-5.872-4.256s-5.184-2.112-8.288-2.96a238.32 238.32 0 0 1-9.52-2.848c-3.264-1.04-6.416-2.336-9.52-3.84s-5.856-3.52-8.288-6a27.84 27.84 0 0 1-5.872-9.28c-1.504-3.696-2.256-8.288-2.256-13.712a32.992 32.992 0 0 1 10.4-23.92c3.408-3.248 7.6-5.84 12.56-7.792 4.96-1.936 10.624-2.928 17.024-2.928 3.568 0 7.056 0.288 10.432 0.848 3.392 0.56 6.592 1.392 9.648 2.48s5.888 2.384 8.512 3.92c2.656 1.52 4.992 3.232 7.088 5.152l-6.72 12.56z" fill="#FFFFFF" p-id="4253"></path></svg>