<?xml version="1.0" standalone="no"?><!DOCTYPE svg PUBLIC "-//W3C//DTD SVG 1.1//EN" "http://www.w3.org/Graphics/SVG/1.1/DTD/svg11.dtd"><svg t="1594387291568" class="icon" viewBox="0 0 1024 1024" version="1.1" xmlns="http://www.w3.org/2000/svg" p-id="4901" width="100" height="100" xmlns:xlink="http://www.w3.org/1999/xlink"><defs><style type="text/css"></style></defs><path d="M954.181818 861.090909H69.818182c-25.6 0-46.545455-20.945455-46.545455-46.545454V209.454545h977.454546v605.09091c0 25.6-20.945455 46.545455-46.545455 46.545454z" fill="#2B5367" p-id="4902"></path><path d="M1000.727273 209.454545H23.272727V116.363636c0-25.6 20.945455-46.545455 46.545455-46.545454h884.363636c25.6 0 46.545455 20.945455 46.545455 46.545454v93.090909z" fill="#ECF0F9" p-id="4903"></path><path d="M954.181818 46.545455H69.818182C30.254545 46.545455 0 76.8 0 116.363636v698.181819c0 39.563636 30.254545 69.818182 69.818182 69.818181h884.363636c39.563636 0 69.818182-30.254545 69.818182-69.818181V116.363636c0-39.563636-30.254545-69.818182-69.818182-69.818181zM46.545455 116.363636c0-13.963636 9.309091-23.272727 23.272727-23.272727h884.363636c13.963636 0 23.272727 9.309091 23.272727 23.272727v69.818182H46.545455V116.363636z m930.90909 698.181819c0 13.963636-9.309091 23.272727-23.272727 23.272727H69.818182c-13.963636 0-23.272727-9.309091-23.272727-23.272727V232.727273h930.90909v581.818182z" fill="#0B3A5B" p-id="4904"></path><path d="M116.363636 139.636364m-23.272727 0a23.272727 23.272727 0 1 0 46.545455 0 23.272727 23.272727 0 1 0-46.545455 0Z" fill="#0B3A5B" p-id="4905"></path><path d="M209.454545 139.636364m-23.272727 0a23.272727 23.272727 0 1 0 46.545455 0 23.272727 23.272727 0 1 0-46.545455 0Z" fill="#0B3A5B" p-id="4906"></path><path d="M302.545455 139.636364m-23.272728 0a23.272727 23.272727 0 1 0 46.545455 0 23.272727 23.272727 0 1 0-46.545455 0Z" fill="#0B3A5B" p-id="4907"></path><path d="M93.090909 290.909091c0-6.981818 4.654545-11.636364 11.636364-11.636364h139.636363c6.981818 0 11.636364 4.654545 11.636364 11.636364s-4.654545 11.636364-11.636364 11.636364h-139.636363c-6.981818 0-11.636364-4.654545-11.636364-11.636364zM302.545455 779.636364c0-6.981818 4.654545-11.636364 11.636363-11.636364h139.636364c6.981818 0 11.636364 4.654545 11.636363 11.636364s-4.654545 11.636364-11.636363 11.636363h-139.636364c-6.981818 0-11.636364-4.654545-11.636363-11.636363zM162.909091 360.727273c0-6.981818 4.654545-11.636364 11.636364-11.636364h139.636363c6.981818 0 11.636364 4.654545 11.636364 11.636364s-4.654545 11.636364-11.636364 11.636363h-139.636363c-6.981818 0-11.636364-4.654545-11.636364-11.636363zM488.727273 709.818182c0-6.981818 4.654545-11.636364 11.636363-11.636364h139.636364c6.981818 0 11.636364 4.654545 11.636364 11.636364s-4.654545 11.636364-11.636364 11.636363h-139.636364c-6.981818 0-11.636364-4.654545-11.636363-11.636363zM651.636364 360.727273c0-6.981818 4.654545-11.636364 11.636363-11.636364h139.636364c6.981818 0 11.636364 4.654545 11.636364 11.636364s-4.654545 11.636364-11.636364 11.636363h-139.636364c-6.981818 0-11.636364-4.654545-11.636363-11.636363zM372.363636 570.181818c0-6.981818 4.654545-11.636364 11.636364-11.636363h139.636364c6.981818 0 11.636364 4.654545 11.636363 11.636363s-4.654545 11.636364-11.636363 11.636364h-139.636364c-6.981818 0-11.636364-4.654545-11.636364-11.636364z" fill="#FFFFFF" p-id="4908"></path><path d="M488.727273 430.545455c0-6.981818 4.654545-11.636364 11.636363-11.636364h139.636364c6.981818 0 11.636364 4.654545 11.636364 11.636364s-4.654545 11.636364-11.636364 11.636363h-139.636364c-6.981818 0-11.636364-4.654545-11.636363-11.636363zM162.909091 570.181818c0-6.981818 4.654545-11.636364 11.636364-11.636363h139.636363c6.981818 0 11.636364 4.654545 11.636364 11.636363s-4.654545 11.636364-11.636364 11.636364h-139.636363c-6.981818 0-11.636364-4.654545-11.636364-11.636364zM512 779.636364c0-6.981818 4.654545-11.636364 11.636364-11.636364h93.090909c6.981818 0 11.636364 4.654545 11.636363 11.636364s-4.654545 11.636364-11.636363 11.636363h-93.090909c-6.981818 0-11.636364-4.654545-11.636364-11.636363z" fill="#FFCB5D" p-id="4909"></path><path d="M372.363636 360.727273c0-6.981818 4.654545-11.636364 11.636364-11.636364h69.818182c6.981818 0 11.636364 4.654545 11.636363 11.636364s-4.654545 11.636364-11.636363 11.636363h-69.818182c-6.981818 0-11.636364-4.654545-11.636364-11.636363z" fill="#F04D4E" p-id="4910"></path><path d="M512 360.727273c0-6.981818 4.654545-11.636364 11.636364-11.636364h69.818181c6.981818 0 11.636364 4.654545 11.636364 11.636364s-4.654545 11.636364-11.636364 11.636363h-69.818181c-6.981818 0-11.636364-4.654545-11.636364-11.636363zM162.909091 640c0-6.981818 4.654545-11.636364 11.636364-11.636364h69.818181c6.981818 0 11.636364 4.654545 11.636364 11.636364s-4.654545 11.636364-11.636364 11.636364h-69.818181c-6.981818 0-11.636364-4.654545-11.636364-11.636364zM93.090909 500.363636c0-6.981818 4.654545-11.636364 11.636364-11.636363h69.818182c6.981818 0 11.636364 4.654545 11.636363 11.636363s-4.654545 11.636364-11.636363 11.636364h-69.818182c-6.981818 0-11.636364-4.654545-11.636364-11.636364z" fill="#FFFFFF" p-id="4911"></path><path d="M628.363636 640c0-6.981818 4.654545-11.636364 11.636364-11.636364h69.818182c6.981818 0 11.636364 4.654545 11.636363 11.636364s-4.654545 11.636364-11.636363 11.636364h-69.818182c-6.981818 0-11.636364-4.654545-11.636364-11.636364zM162.909091 779.636364c0-6.981818 4.654545-11.636364 11.636364-11.636364h69.818181c6.981818 0 11.636364 4.654545 11.636364 11.636364s-4.654545 11.636364-11.636364 11.636363h-69.818181c-6.981818 0-11.636364-4.654545-11.636364-11.636363z" fill="#F04D4E" p-id="4912"></path><path d="M162.909091 430.545455c0-6.981818 4.654545-11.636364 11.636364-11.636364h256c6.981818 0 11.636364 4.654545 11.636363 11.636364s-4.654545 11.636364-11.636363 11.636363h-256c-6.981818 0-11.636364-4.654545-11.636364-11.636363zM302.545455 640c0-6.981818 4.654545-11.636364 11.636363-11.636364h256c6.981818 0 11.636364 4.654545 11.636364 11.636364s-4.654545 11.636364-11.636364 11.636364h-256c-6.981818 0-11.636364-4.654545-11.636363-11.636364zM162.909091 709.818182c0-6.981818 4.654545-11.636364 11.636364-11.636364h256c6.981818 0 11.636364 4.654545 11.636363 11.636364s-4.654545 11.636364-11.636363 11.636363h-256c-6.981818 0-11.636364-4.654545-11.636364-11.636363z" fill="#FFFFFF" p-id="4913"></path><path d="M791.272727 744.727273m-186.181818 0a186.181818 186.181818 0 1 0 372.363636 0 186.181818 186.181818 0 1 0-372.363636 0Z" fill="#F5B445" p-id="4914"></path><path d="M791.272727 977.454545c-128 0-232.727273-104.727273-232.727272-232.727272s104.727273-232.727273 232.727272-232.727273 232.727273 104.727273 232.727273 232.727273-104.727273 232.727273-232.727273 232.727272z m0-418.90909c-102.4 0-186.181818 83.781818-186.181818 186.181818s83.781818 186.181818 186.181818 186.181818 186.181818-83.781818 186.181818-186.181818-83.781818-186.181818-186.181818-186.181818z" fill="#0B3A5B" p-id="4915"></path><path d="M844.8 567.854545l-232.727273 232.727273c13.963636 41.890909 41.890909 79.127273 79.127273 102.4l256-256c-23.272727-39.563636-58.181818-67.490909-102.4-79.127273zM791.272727 930.909091c102.4 0 186.181818-83.781818 186.181818-186.181818 0-13.963636-2.327273-30.254545-4.654545-44.218182l-223.418182 223.418182c11.636364 4.654545 27.927273 6.981818 41.890909 6.981818z" fill="#FFCB5B" p-id="4916"></path><path d="M875.054545 733.090909c4.654545-11.636364 9.309091-23.272727 9.309091-34.909091 0-39.563636-30.254545-69.818182-69.818181-69.818182 0-13.963636-9.309091-23.272727-23.272728-23.272727s-23.272727 9.309091-23.272727 23.272727h-46.545455c-13.963636 0-23.272727 9.309091-23.272727 23.272728s9.309091 23.272727 23.272727 23.272727v139.636364c-13.963636 0-23.272727 9.309091-23.272727 23.272727s9.309091 23.272727 23.272727 23.272727h46.545455c0 13.963636 9.309091 23.272727 23.272727 23.272727s23.272727-9.309091 23.272728-23.272727h23.272727c39.563636 0 69.818182-30.254545 69.818182-69.818182 0-25.6-13.963636-46.545455-32.581819-58.181818zM814.545455 674.909091c13.963636 0 23.272727 9.309091 23.272727 23.272727s-9.309091 23.272727-23.272727 23.272727h-46.545455v-46.545454h46.545455z m23.272727 139.636364h-69.818182v-46.545455h69.818182c13.963636 0 23.272727 9.309091 23.272727 23.272727s-9.309091 23.272727-23.272727 23.272728z" fill="#0B3A5B" p-id="4917"></path></svg>