<?xml version="1.0" standalone="no"?><!DOCTYPE svg PUBLIC "-//W3C//DTD SVG 1.1//EN" "http://www.w3.org/Graphics/SVG/1.1/DTD/svg11.dtd"><svg t="1652856602265" class="icon" viewBox="0 0 1024 1024" version="1.1" xmlns="http://www.w3.org/2000/svg" p-id="3899" xmlns:xlink="http://www.w3.org/1999/xlink" width="30" height="30"><defs><style type="text/css"></style></defs><path d="M516.297792 593.811532c-24.968122 0-45.331468-20.261017-45.331468-45.331468V299.208154c0-24.968122 20.261017-45.22914 45.331468-45.229139 25.070451 0 45.433796 20.261017 45.433796 45.229139v249.27191c-0.102328 25.070451-20.465674 45.331468-45.433796 45.331468zM516.297792 760.91376c-29.675227 0-53.824723-24.047167-53.824723-53.927051 0-29.572899 24.149495-53.824723 53.824723-53.824722 29.777556 0 53.824723 24.149495 53.824722 53.824722-0.102328 29.777556-24.149495 53.927051-53.824722 53.927051z" p-id="3900" fill="#4abf8a"></path><path d="M516.093135 949.607275c-243.439193 0-441.546917-198.107725-441.546917-441.546917S272.653942 66.513441 516.093135 66.513441s441.546917 198.107725 441.546917 441.546917-198.107725 441.546917-441.546917 441.546917z m0-827.938843c-213.047667 0-386.391926 173.344259-386.391926 386.391926 0 213.047667 173.344259 386.391926 386.391926 386.391925 213.047667 0 386.391926-173.344259 386.391925-386.391925 0-213.047667-173.344259-386.391926-386.391925-386.391926z" p-id="3901" fill="#4abf8a"></path></svg>