<?xml version="1.0" standalone="no"?><!DOCTYPE svg PUBLIC "-//W3C//DTD SVG 1.1//EN" "http://www.w3.org/Graphics/SVG/1.1/DTD/svg11.dtd"><svg t="1636263044631" class="icon" viewBox="0 0 1024 1024" version="1.1" xmlns="http://www.w3.org/2000/svg" p-id="2811" xmlns:xlink="http://www.w3.org/1999/xlink" width="200" height="200"><defs><style type="text/css"></style></defs><path d="M672.096 617.208c0 175.822-143.356 320.194-320.194 320.194S31.708 793.03 31.708 617.208h640.388z" fill="#39B54A" p-id="2812"></path><path d="M640.078 87.652H383.922c-203.364 0-369.49 165.264-369.49 368.626v0.296c0 57.378 14.388 112.494 37.8 160.636h619.866c0 77.446-29.168 150.704-77.164 207.218h45.144c203.364 0 368.582-164.758 368.582-368.122v0.192c0-203.366-165.218-368.846-368.582-368.846z" fill="#006837" p-id="2813"></path><path d="M124.564 615.974C56.446 572.12 15.7 516.448 15.7 455.868 15.698 314.396 237.9 199.712 512 199.712s496.302 114.686 496.302 256.154c0 112.558-140.658 208.16-336.2 242.534" fill="#009245" p-id="2814"></path><path d="M512 199.712c-274.102 0-496.302 115.308-496.302 256.776 0 60.576 40.742 116.764 108.852 160.72h547.546c0 27.21-3.954 54.342-10.696 80.206l10.698 1.3c195.542-34.378 336.2-130.132 336.2-242.69C1008.302 314.552 786.1 199.712 512 199.712z" fill="#39B54A" p-id="2815"></path><path d="M624.068 615.964c0 150.312-121.852 272.166-272.166 272.166S79.738 766.278 79.738 615.964" fill="#FF1D25" p-id="2816"></path><path d="M576.038 631.86c0 123.494-100.35 224.136-224.136 224.136S127.766 755.354 127.766 631.86H79.738c0 150.704 121.852 272.166 272.166 272.166s272.166-121.462 272.166-272.166h-48.032z" fill="#FF777C" p-id="2817"></path><path d="M15.698 455.858a496.298 112.066 0 1 0 992.596 0 496.298 112.066 0 1 0-992.596 0Z" fill="#006837" p-id="2818"></path><path d="M64.666 424.65h31.396v79.538H64.666zM929.11 424.65h31.396v79.538h-31.396z" fill="" p-id="2819"></path><path d="M640.078 71.944H383.92C172.228 71.944 0 244.172 0 455.868c0 50.25 9.488 98.77 28.182 144.596H16.526v15.698c0 185.21 150.734 335.894 335.944 335.894 99.402 0 188.856-43.418 250.424-112.266h37.184C851.774 839.79 1024 667.562 1024 455.868S851.774 71.944 640.078 71.944zM383.92 103.342h256.156c151.594 0 281.138 96.186 330.828 230.73-25.214-26.99-59.03-51.742-100.768-73.284-95.924-49.508-223.114-76.776-358.14-76.776s-262.214 27.264-358.14 76.776c-41.738 21.542-75.556 46.294-100.768 73.284C102.784 199.528 232.33 103.342 383.92 103.342zM52.752 576.968c7.434 8.046 15.662 15.88 24.574 23.496h-14.998a360.332 360.332 0 0 1-9.576-23.496z m555.062 54.892c-8.606 134.43-120.088 239.722-255.912 239.722S104.596 766.29 95.99 631.86h511.824zM351.902 920.658c-162.632 0-295.894-128.168-304.098-288.8h16.73c8.686 151.27 134.248 271.118 287.368 271.118 153.118 0 278.678-119.85 287.366-271.118h16.73c-8.202 160.632-141.464 288.8-304.096 288.8z m288.176-112.266h-12.288a334.728 334.728 0 0 0 46.688-96.468l0.342 1.938c99.49-17.49 185.176-50.204 247.792-94.604 18.588-13.182 34.72-27.108 48.314-41.642-49.678 134.57-179.236 230.776-330.848 230.776z m264.372-214.744c-55.342 39.244-133.888 69.902-222.26 86.922a336.286 336.286 0 0 0 6.222-64.408v-15.698H129.542c-56.386-37.218-90.154-81.916-96.876-127.68h15.256v-31.396h-15.61c6.93-56.932 54.564-110.692 135.95-152.7 91.554-47.254 213.63-73.278 343.74-73.278 130.108 0 252.182 26.024 343.74 73.278 81.388 42.006 129.022 95.766 135.952 152.7h-16.518v31.396h16.212c-6.176 43.192-35.9 84.672-86.938 120.864z" fill="" p-id="2820"></path><path d="M255.13 680.01h31.396v48.142h-31.396zM303.292 793.038h31.396v46.048h-31.396zM353.526 663.264h31.396v50.234h-31.396zM416.32 728.152h31.396v48.142H416.32zM462.368 663.264h31.396v50.234h-31.396zM177.684 713.5h31.396v46.048H177.684z" fill="" p-id="2821"></path></svg>