<?xml version="1.0" standalone="no"?><!DOCTYPE svg PUBLIC "-//W3C//DTD SVG 1.1//EN" "http://www.w3.org/Graphics/SVG/1.1/DTD/svg11.dtd"><svg t="1594388465001" class="icon" viewBox="0 0 1024 1024" version="1.1" xmlns="http://www.w3.org/2000/svg" p-id="6106" xmlns:xlink="http://www.w3.org/1999/xlink" width="100" height="100"><defs><style type="text/css"></style></defs><path d="M112 16h736v992H112z" fill="#FEEB9E" p-id="6107"></path><path d="M593.472 729.472A15.68 15.68 0 0 0 592 736v96h-16a16 16 0 1 0 0 32h32a16 16 0 0 0 16-16v-104.64l27.296-27.296c3.328-3.328 4.864-7.728 4.752-12.112a16.48 16.48 0 0 0-4.784-12.208L624 664.48V560a16 16 0 0 0-16-16h-32a16 16 0 1 0 0 32h16v95.808c-0.192 4.48 1.312 9.008 4.736 12.432l19.824 19.824-19.36 19.36c-1.76 1.76-2.928 3.84-3.728 6.048zM480 784v16a16 16 0 1 0 32 0v-48a32 32 0 1 0-32 32z m0-112a32 32 0 1 0-0.016-64.016A32 32 0 0 0 480 672zM896 128h-32V32a32 32 0 0 0-32-32H128a32 32 0 0 0-32 32v960a32 32 0 0 0 32 32h704a32 32 0 0 0 32-32V416h32a32 32 0 0 0 32-32V160a32 32 0 0 0-32-32z m-64 0H448a32 32 0 0 0-32 32v224a32 32 0 0 0 32 32h384v576H128V32h704v96zM336 743.36V848a16 16 0 0 0 16 16h32a16 16 0 1 0 0-32h-16v-96a15.68 15.68 0 0 0-1.472-6.528 16 16 0 0 0-3.728-6.032l-19.36-19.36 19.824-19.824c3.424-3.424 4.928-7.952 4.736-12.432V576h16a16 16 0 1 0 0-32h-32a16 16 0 0 0-16 16v104.48l-27.264 27.264c-3.36 3.36-4.912 7.792-4.784 12.208-0.128 4.368 1.424 8.784 4.752 12.112L336 743.36z" fill="#2B3139" p-id="6108"></path><path d="M448 160h448v224H448z" fill="#FFFFFF" p-id="6109"></path><path d="M653.184 286.912c0 31.504-14.24 43.808-42.864 43.808-28.96 0-41.888-16.16-41.888-41.088v-9.6h31.664v6.544c0 8.8 0 16.96 9.44 16.96 9.104 0 8.464-11.024 8.464-16.16v-73.552h35.184v73.088zM699.28 289.632c0 2.88 0.496 5.44 1.28 7.52 2.56 6.88 10.256 8.32 16.8 8.32 5.76 0 14.544-1.92 14.544-10.384 0-5.92-4.96-7.52-24.624-13.12-18.064-5.104-38.688-10.064-38.688-33.088 0-26.384 22.528-37.728 46.048-37.728 24.8 0 46.704 9.424 47.664 37.248h-33.264c0.64-4.32-1.28-7.184-4.16-9.104-2.88-2.08-6.88-2.88-10.384-2.88-4.8 0-12.64 1.28-12.64 7.664 0.656 8.16 16.96 9.904 33.104 14.384s32.144 12 32.144 32.944c0 29.744-27.344 39.344-52.784 39.344-12.944 0-49.872-4.64-50.208-41.088h35.168z" fill="#2B3139" p-id="6110"></path></svg>