<?xml version="1.0" standalone="no"?><!DOCTYPE svg PUBLIC "-//W3C//DTD SVG 1.1//EN" "http://www.w3.org/Graphics/SVG/1.1/DTD/svg11.dtd"><svg t="1642760967488" class="icon" viewBox="0 0 1024 1024" version="1.1" xmlns="http://www.w3.org/2000/svg" p-id="4107" xmlns:xlink="http://www.w3.org/1999/xlink" width="80" height="80"><defs><style type="text/css"></style></defs><path d="M886.7328 410.112h-17.3056V276.1216c0-73.4208-56.3712-133.632-128.1536-139.8784v-1.6896c0-20.48-16.5888-37.0688-37.0688-37.0688H317.8496c-20.48 0-37.0688 16.5888-37.0688 37.0688v1.6896c-71.8336 6.1952-128.1536 66.4576-128.1536 139.8784V410.112h-23.7056c-16.64 0-30.1568 13.5168-30.1568 30.1568v76.1344c0 16.64 13.5168 30.1568 30.1568 30.1568h23.7056v174.4896c0 38.6048 15.616 73.5744 40.8064 98.9696v53.4528c0 26.8288 21.76 48.5888 48.5888 48.5888h54.6816c26.8288 0 48.5888-21.76 48.5888-48.5888v-12.032h334.7456v12.032c0 26.8288 21.76 48.5888 48.5888 48.5888h54.6816c26.8288 0 48.5888-21.76 48.5888-48.5888v-56.8832c23.296-25.088 37.5808-58.624 37.5808-95.5392v-174.4896h17.3056c16.64 0 30.1568-13.5168 30.1568-30.1568V440.2688a30.21824 30.21824 0 0 0-30.208-30.1568zM306.944 753.7152c-35.1744 0-63.6928-28.5184-63.6928-63.6928 0-35.1744 28.5184-63.6928 63.6928-63.6928s63.6928 28.5184 63.6928 63.6928c-0.0512 35.1744-28.5184 63.6928-63.6928 63.6928z m407.7056 0c-35.1744 0-63.6928-28.5184-63.6928-63.6928 0-35.1744 28.5184-63.6928 63.6928-63.6928 35.1744 0 63.6928 28.5184 63.6928 63.6928 0 35.1744-28.5184 63.6928-63.6928 63.6928z m64.9728-243.9168H242.432V311.552c0-20.48 16.5888-37.0688 37.0688-37.0688h463.0528c20.48 0 37.0688 16.5888 37.0688 37.0688v198.2464z" fill="#05C46D" p-id="4108"></path><path d="M869.4272 276.1216c0-73.4208-56.3712-133.632-128.1536-139.8784v-1.6896c0-20.48-16.5888-37.0688-37.0688-37.0688H317.8496c-20.48 0-37.0688 16.5888-37.0688 37.0688v1.6896c-71.8336 6.1952-128.1536 66.4576-128.1536 139.8784V410.112h-23.7056c-16.64 0-30.1568 13.5168-30.1568 30.1568v76.1344c0 16.64 13.5168 30.1568 30.1568 30.1568h23.7056v174.4896c0 38.6048 15.616 73.5744 40.8064 98.9696v53.4528c0 4.4544 0.6656 8.7552 1.792 12.8512 24.7296 3.1232 49.92 4.7104 75.4688 4.7104 24.6272 0 48.896-1.536 72.7552-4.4032 1.1776-4.1984 1.8432-8.6016 1.8432-13.1584v-12.032h112.0256c80.384-26.2144 153.344-68.9152 214.8352-124.1088-12.9536-11.6736-21.1968-28.5184-21.1968-47.3088 0-35.1744 28.5184-63.6928 63.6928-63.6928 16.4352 0 31.3856 6.2976 42.7008 16.5376 61.952-85.248 102.0416-187.392 112.0768-298.24V276.1216zM306.944 753.7152c-35.1744 0-63.6928-28.5184-63.6928-63.6928 0-35.1744 28.5184-63.6928 63.6928-63.6928s63.6928 28.5184 63.6928 63.6928c-0.0512 35.1744-28.5184 63.6928-63.6928 63.6928z m472.6784-243.9168H242.432V311.552c0-20.48 16.5888-37.0688 37.0688-37.0688h463.0528c20.48 0 37.0688 16.5888 37.0688 37.0688v198.2464z" fill="#1DCE75" p-id="4109"></path><path d="M250.7776 659.968c10.752-20.0192 31.8464-33.6384 56.1664-33.6384 9.8816 0 19.1488 2.304 27.4944 6.2976 70.5024-28.928 134.2976-70.912 188.416-122.88H242.432V311.552c0-20.48 16.5888-37.0688 37.0688-37.0688h394.496c19.456-55.6544 30.9248-115.0464 33.0752-176.8448-0.9728-0.0512-1.8944-0.1536-2.8672-0.1536H317.8496c-20.48 0-37.0688 16.5888-37.0688 37.0688v1.6896c-71.8336 6.1952-128.1536 66.4576-128.1536 139.8784V410.112h-23.7056c-16.64 0-30.1568 13.5168-30.1568 30.1568v76.1344c0 16.64 13.5168 30.1568 30.1568 30.1568h23.7056v129.1776c33.5872-2.56 66.3552-7.8848 98.1504-15.7696z" fill="#3CD38E" p-id="4110"></path><path d="M242.432 311.552c0-20.48 16.5888-37.0688 37.0688-37.0688h114.3296c48.128-51.3536 87.3984-111.1552 115.2-176.9984H317.8496c-20.48 0-37.0688 16.5888-37.0688 37.0688v1.6896c-71.8336 6.1952-128.1536 66.4576-128.1536 139.8784V410.112h-23.7056c-16.64 0-30.1568 13.5168-30.1568 30.1568v7.168c50.688-12.4416 98.9184-31.2832 143.6672-55.7056V311.552z" fill="#48E1AA" p-id="4111"></path></svg>