<?xml version="1.0" standalone="no"?><!DOCTYPE svg PUBLIC "-//W3C//DTD SVG 1.1//EN" "http://www.w3.org/Graphics/SVG/1.1/DTD/svg11.dtd"><svg t="1642761062000" class="icon" viewBox="0 0 1024 1024" version="1.1" xmlns="http://www.w3.org/2000/svg" p-id="10087" xmlns:xlink="http://www.w3.org/1999/xlink" width="80" height="80"><defs><style type="text/css"></style></defs><path d="M490.5472 168.482133h7.850667v16.964267h-7.850667zM464.725333 647.5264l-5.12 0.1024-0.068266-18.414933h5.188266v18.312533zM752.913067 673.757867l-0.017067-17.800534-2.389333-0.648533 0.853333 21.435733M237.960533 855.978667h9.984v17.664h-9.984z" fill="#996E28" p-id="10088"></path><path d="M739.976533 625.800533c-0.221867-8.106667-4.522667-22.545067-30.72-28.0576a6.229333 6.229333 0 0 1-2.286933-1.006933l-1.3824-0.989867c64.2048-50.978133 97.399467-118.9376 93.866667-193.058133-6.007467-96.034133-22.8864-145.834667-69.512534-205.0048a6.826667 6.826667 0 0 0-4.744533-2.56c-13.653333-13.653333-29.678933-35.413333-24.951467-52.343467 4.846933-17.3568 4.932267-37.546667 4.1472-51.438933a10.103467 10.103467 0 0 0-19.575466-2.901333c-5.0176 13.482667-12.782933 24.200533-21.384534 29.320533-18.773333 11.2128-30.8224 59.016533-35.584 81.4592a79.5136 79.5136 0 0 1-15.36 1.3312c-37.051733 0-90.7264-18.244267-108.3904-24.644267a10.103467 10.103467 0 0 0-12.458666 14.062934c37.290667 74.2912 115.234133 78.062933 130.491733 78.062933 25.258667 0 59.528533 7.185067 79.3088 41.4208 12.970667 22.459733 7.082667 56.576 0.580267 79.633067-25.514667 38.997333-65.143467 65.4848-95.726934 85.896533-7.185067 4.795733-13.9776 9.335467-20.0704 13.653333-1.706667 1.194667-3.413333 2.372267-5.12 3.5328-4.283733-10.6496-13.175467-19.831467-26.333866-27.0336a50.619733 50.619733 0 0 1-19.626667-19.5584l-0.136533-0.221866a10.820267 10.820267 0 0 0-20.138667 4.3008 334.762667 334.762667 0 0 0 3.413333 90.197333c-19.421867 20.1216-38.894933 48.708267-56.9856 94.446933a6.6048 6.6048 0 0 0-0.256 0.802134 42.666667 42.666667 0 0 0 4.881067 33.553066c0.324267 10.990933 3.106133 29.610667 17.169067 41.403734 8.192 6.826667 18.773333 10.24 31.658666 10.24a106.496 106.496 0 0 0 30.208-5.0176c8.8576-2.6624 29.013333-12.475733 34.4576-25.105067 14.984533-9.472 34.235733-23.688533 52.736-37.870933l0.6656 0.494933 0.443734 0.3584c6.0928 5.444267 50.158933 43.6736 87.04 43.6736a40.6528 40.6528 0 0 0 27.016533-9.3696c11.946667-8.994133 1.570133-36.539733-3.072-45.568a37.444267 37.444267 0 0 1-4.266667-16.093867z" fill="#996E28" p-id="10089"></path><path d="M476.637867 845.6192c-14.1312-35.84-29.405867-57.6-44.5952-72.823467 1.809067-20.0704 3.7888-53.469867 0.7168-83.9168a8.123733 8.123733 0 0 0-15.138134-3.2256l-0.136533 0.256c-1.024 1.792-2.218667 4.215467-3.618133 7.0144-3.293867 6.621867-9.403733 18.961067-13.312 21.111467-7.458133 4.078933-12.8 12.782933-15.0528 23.893333-0.938667-0.648533-1.911467-1.28-2.850134-1.962666-4.590933-3.259733-9.693867-6.673067-15.104-10.24-20.804267-13.892267-47.172267-31.505067-66.235733-56.4224-5.307733-14.8992-15.616-50.210133-3.259733-71.594667 14.8992-25.770667 40.686933-31.1808 59.733333-31.1808 7.031467 0 69.5296-1.706667 98.184533-58.743467a9.8304 9.8304 0 0 0 0.785067-4.078933c0-1.536 0.546133-15.189333-0.136533-18.0736-2.065067-2.338133-7.0656 10.530133-10.001067 11.588267-6.4512 2.338133-21.248 3.805867-36.898133 5.376-21.947733 2.184533-44.544 4.437333-57.053867 9.847466-12.817067-23.893333-39.5776-74.359467-42.0352-81.066666a7.5776 7.5776 0 0 0-14.6944 2.184533c-0.597333 10.4448-0.529067 25.6 3.1232 38.7072 4.096 14.677333-12.6464 34.269867-23.278933 43.639467a5.12 5.12 0 0 0-1.211734 1.092266c-35.089067 44.526933-47.786667 82.0224-52.309333 154.368-2.577067 53.316267 20.206933 102.4 64.529067 140.1856-13.4144 6.0928-19.643733 20.48-19.831467 27.648a28.16 28.16 0 0 1-3.242667 12.168534c-1.706667 3.413333-9.284267 7.816533-14.2336 10.7008-7.048533 4.113067-11.3152 6.587733-11.502933 11.042133a6.212267 6.212267 0 0 0 2.542933 5.256533c6.826667 5.802667 16.1792 8.055467 26.436267 8.055467 33.706667 0 77.7216-24.285867 80.213333-26.5728l0.341334-0.273067 0.512-0.375466c15.018667 11.502933 30.72 23.074133 42.308266 30.139733a61.866667 61.866667 0 0 0 15.172267 6.656 47.104 47.104 0 0 0 13.277867 6.826667 61.269333 61.269333 0 0 0 17.390933 2.884266 28.074667 28.074667 0 0 0 18.653867-6.109866 29.3888 29.3888 0 0 0 9.386666-17.681067c14.523733-12.987733 14.933333-26.453333 12.526934-35.703467a5.4272 5.4272 0 0 0-0.1024-0.597333z" fill="#996E28" p-id="10090"></path><path d="M636.910933 630.357333c0.3072 0.238933 0.597333 0.477867 0.887467 0.733867 5.819733 5.12 71.68 62.754133 105.3184 34.013867 6.314667-4.420267 1.501867-24.6272-4.9152-37.0688a44.4928 44.4928 0 0 1-5.12-19.0976c-0.2048-7.492267-4.795733-17.2544-25.344-21.572267a13.038933 13.038933 0 0 1-4.829867-2.116267c-1.399467-0.989867-2.6112-1.860267-3.6352-2.628266a13.226667 13.226667 0 0 0-13.909333-1.211734L636.586667 606.208a13.226667 13.226667 0 0 0-4.352 3.5328 13.226667 13.226667 0 0 0 2.389333 18.773333z" fill="#D5382E" p-id="10091"></path><path d="M720.349867 679.8336c-36.932267 0-81.015467-38.229333-87.04-43.656533l-0.4096-0.341334-2.3552-1.706666a20.053333 20.053333 0 0 1 2.9696-33.928534l48.913066-24.814933a19.950933 19.950933 0 0 1 21.077334 1.826133c0.989867 0.733867 2.1504 1.570133 3.413333 2.525867a6.212267 6.212267 0 0 0 2.286933 1.006933c26.248533 5.512533 30.549333 19.950933 30.72 28.0576a37.4272 37.4272 0 0 0 4.3008 16.1792c4.642133 9.028267 15.086933 36.573867 3.072 45.568a40.635733 40.635733 0 0 1-26.948266 9.284267z m-79.342934-54.9376c0.477867 0.3584 0.9216 0.7168 1.348267 1.109333 2.7136 2.423467 66.798933 59.118933 96.341333 33.911467l0.1536-0.136533c1.553067-3.293867-0.768-17.066667-6.7072-28.6208a50.944 50.944 0 0 1-5.819733-22.050134c-0.2048-7.2704-6.826667-12.3392-19.933867-15.069866a19.968 19.968 0 0 1-7.3728-3.2256c-1.450667-1.024-2.696533-1.928533-3.771733-2.730667a6.382933 6.382933 0 0 0-6.741333-0.597333l-48.913067 24.814933a6.4 6.4 0 0 0-0.938667 10.837333z m97.757867 35.054933z" fill="#E8D4AB" p-id="10092"></path><path d="M529.937067 543.880533s-14.4896-48.827733-8.260267-110.557866a3.9936 3.9936 0 0 1 7.389867-1.536l0.187733 0.341333a57.378133 57.378133 0 0 0 22.186667 22.050133c11.690667 6.4 25.719467 17.92 25.719466 36.471467 0 31.812267-20.6336 56.7296-20.6336 56.7296z" fill="#D5382E" p-id="10093"></path><path d="M556.5952 554.154667a6.826667 6.826667 0 0 1-0.8704 0l-26.658133-3.413334a6.826667 6.826667 0 0 1-5.666134-4.829866c-0.6144-2.048-14.813867-50.8416-8.533333-113.186134a10.820267 10.820267 0 0 1 20.138667-4.3008l0.221866 0.392534a50.432 50.432 0 0 0 19.524267 19.387733c19.1488 10.461867 29.269333 25.1392 29.269333 42.461867 0 33.877333-21.2992 59.989333-22.186666 61.0816a6.826667 6.826667 0 0 1-5.239467 2.4064z m-21.230933-16.452267l18.141866 2.338133c5.000533-7.150933 16.896-26.555733 16.896-49.493333 0-15.172267-12.049067-24.951467-22.186666-30.481067a63.419733 63.419733 0 0 1-20.48-17.92 319.146667 319.146667 0 0 0 7.6288 95.556267z" fill="#E8D4AB" p-id="10094"></path><path d="M344.4736 838.382933l-0.6656 0.546134c-4.386133 3.908267-74.8032 39.970133-100.1472 18.3296-4.7616-3.328 19.746133-11.264 24.576-20.6336a33.4848 33.4848 0 0 0 3.805867-14.3872c0.1536-5.632 6.826667-21.6576 22.186666-24.900267 1.297067-0.273067-1.092267-8.533333 0-9.3184s7.662933-8.738133 8.430934-9.3184c3.037867-2.269867 1.8944 21.111467 5.2736 22.818133L344.746667 820.206933a9.949867 9.949867 0 0 1 3.2768 2.6624 9.949867 9.949867 0 0 1-1.809067 14.1824z" fill="#D5382E" p-id="10095"></path><path d="M266.922667 869.3248c-10.24 0-19.5584-2.2528-26.436267-8.055467a6.212267 6.212267 0 0 1-2.542933-5.256533c0.187733-4.4544 4.4544-6.929067 11.502933-11.042133 4.9664-2.884267 12.475733-7.253333 14.2336-10.7008a28.177067 28.177067 0 0 0 3.242667-12.168534c0.2048-7.611733 7.202133-23.330133 22.3232-28.672-0.494933-3.6864-0.9728-7.168 1.8432-9.352533 0.6656-0.648533 2.8672-3.1744 4.1984-4.7104a35.84 35.84 0 0 1 4.352-4.693333 5.632 5.632 0 0 1 5.7344-0.682667c3.822933 1.706667 4.1984 5.905067 4.932266 14.267733a78.336 78.336 0 0 0 1.194667 9.386667l35.601067 18.056533a15.069867 15.069867 0 0 1 2.218666 25.4976l-1.706666 1.3312-0.341334 0.273067c-2.628267 2.235733-46.660267 26.5216-80.349866 26.5216z m-16.042667-13.346133c24.9344 12.578133 84.1728-16.6912 89.4976-20.923734 0.256-0.238933 0.597333-0.512 0.938667-0.768l1.706666-1.3312a4.846933 4.846933 0 0 0-0.7168-8.174933L305.493333 806.109867c-3.9936-2.030933-4.6592-7.168-5.5296-16.776534l-0.938666 1.041067c0 0.546133 0.1536 1.1776 0.2048 1.706667 0.477867 3.413333 1.262933 9.250133-4.078934 10.376533-13.073067 2.747733-18.056533 16.708267-18.141866 20.036267a38.331733 38.331733 0 0 1-4.369067 16.5888c-3.140267 6.0928-11.144533 10.752-18.193067 14.865066-0.989867 0.546133-2.304 1.314133-3.566933 2.030934z m40.3456-72.1408l-0.136533 0.1024z" fill="#E8D4AB" p-id="10096"></path><path d="M424.96 773.290667s7.355733-54.510933 2.679467-100.9664a3.003733 3.003733 0 0 0-5.597867-1.211734l-0.1536 0.256c-3.959467 6.946133-11.946667 26.248533-18.926933 30.088534-8.8064 4.8128-13.653333 17.7664-13.653334 31.709866 0 23.893333 15.530667 42.666667 15.530667 42.666667z" fill="#D5382E" p-id="10097"></path><path d="M404.9408 781.0048a5.12 5.12 0 0 1-3.9424-1.860267c-0.682667-0.8192-16.708267-20.48-16.708267-45.960533 0-16.8448 6.229333-30.72 16.264534-36.1984 3.925333-2.133333 10.0352-14.4896 13.329066-21.111467 1.3824-2.798933 2.577067-5.2224 3.601067-7.0144l0.187733-0.341333a8.123733 8.123733 0 0 1 15.086934 3.310933c4.693333 46.523733-2.389333 99.908267-2.696534 102.161067a5.12 5.12 0 0 1-4.420266 4.386133l-20.053334 2.594134zM423.253333 680.106667l-0.1536 0.3072c-5.9392 11.946667-11.349333 22.186667-17.595733 25.6-6.536533 3.566933-10.922667 14.506667-10.922667 27.306666 0 17.339733 8.96 31.8976 12.714667 37.239467l13.1584-1.706667c1.3824-12.4928 5.4272-52.309333 2.798933-88.746666z m3.328-6.434134z" fill="#E8D4AB" p-id="10098"></path><path d="M472.968533 643.413333s-8.413867 71.68 69.973334 48.264534c10.666667-3.191467 27.818667-13.312 30.600533-22.442667" fill="#D5382E" p-id="10099"></path><path d="M514.730667 703.300267c-12.885333 0-23.483733-3.413333-31.658667-10.24-20.48-17.2032-17.066667-48.964267-16.896-50.312534l13.568 1.5872-6.826667-0.802133 6.826667 0.785067c0 0.256-2.730667 25.890133 12.151467 38.314666 10.154667 8.533333 26.6752 9.3696 49.134933 2.645334 10.8032-3.242667 24.4224-12.5952 26.026667-17.885867l13.056 3.959467c-4.113067 13.550933-25.873067 24.2176-35.1744 26.999466a106.478933 106.478933 0 0 1-30.208 4.949334z" fill="#E8D4AB" p-id="10100"></path><path d="M501.76 165.290667c23.022933 8.3456 93.4912 31.965867 129.911467 23.04a3.2256 3.2256 0 0 0 2.372266-2.5088c2.3552-11.383467 14.933333-68.471467 32.887467-79.240534 11.844267-7.099733 19.780267-20.770133 24.200533-32.836266a3.2768 3.2768 0 0 1 6.3488 0.938666c0.802133 14.1312 0.597333 33.058133-3.908266 49.220267-7.7824 27.869867 27.682133 60.279467 33.1776 65.0752a3.242667 3.242667 0 0 1 0.9728 1.536L752.913067 276.48a3.1744 3.1744 0 0 1 0.136533 0.904533c0 7.1168-0.733867 94.429867-28.398933 113.169067-28.842667 19.524267-24.849067 8.874667-24.849067 8.874667s30.6176-70.570667 7.543467-110.523734-63.470933-44.834133-85.213867-44.834133c-20.992 0-90.8288-7.441067-124.381867-74.2912a3.2768 3.2768 0 0 1 4.010667-4.488533z" fill="#D5382E" p-id="10101"></path><path d="M701.610667 409.2416a8.7552 8.7552 0 0 1-5.649067-1.8944 8.96 8.96 0 0 1-2.56-10.24l0.136533-0.324267c0.290133-0.682667 29.013333-67.908267 7.901867-104.379733-19.780267-34.235733-54.050133-41.4208-79.3088-41.4208-15.240533 0-93.201067-3.771733-130.491733-78.062933a10.103467 10.103467 0 0 1 12.458666-14.062934c20.309333 7.355733 88.234667 30.378667 123.7504 23.313067 4.7616-22.442667 16.896-70.2464 35.584-81.4592 8.533333-5.12 16.366933-15.854933 21.2992-29.3376a10.103467 10.103467 0 0 1 19.575467 2.901333c0.785067 13.892267 0.699733 34.133333-4.1472 51.438934-5.4784 19.575467 16.981333 45.738667 31.095467 58.026666a10.069333 10.069333 0 0 1 3.0208 4.744534L759.466667 274.6368a10.1376 10.1376 0 0 1 0.4096 2.833067c0 16.315733-1.706667 98.696533-31.402667 118.818133-13.192533 8.925867-21.2992 12.9536-26.862933 12.9536zM508.194133 174.7968c36.027733 60.7232 105.813333 62.532267 113.92 62.532267 28.859733 0 68.096 8.362667 91.136 48.247466 19.234133 33.28 4.676267 84.2752-3.140266 106.171734 2.7136-1.553067 6.212267-3.720533 10.7008-6.826667 19.848533-13.431467 25.2928-75.554133 25.412266-106.990933l-24.763733-84.5824c-8.9088-7.970133-42.973867-40.874667-34.4576-71.355734a128.853333 128.853333 0 0 0 3.9936-31.7952c-4.590933 8.0384-11.264 16.605867-20.48 22.186667-11.264 6.826667-23.04 42.427733-29.713067 74.769067a10.103467 10.103467 0 0 1-7.424 7.748266c-34.082133 8.3968-93.678933-9.250133-125.184-20.104533z" fill="#E8D4AB" p-id="10102"></path><path d="M724.497067 184.832s26.043733 88.183467 0 158.0032-95.2832 106.530133-134.331734 134.331733-83.456 43.810133-122.538666 142.6432c-4.1472 15.9744 1.706667 30.72 18.346666 43.793067s51.490133 27.306667 86.408534 5.922133 99.413333-74.564267 114.210133-85.213866S798.464 508.586667 792.541867 386.048c-5.905067-94.685867-21.896533-142.626133-68.0448-201.216z" fill="#D5382E" p-id="10103"></path><path d="M534.306133 687.291733A86.8352 86.8352 0 0 1 481.774933 669.013333c-23.296-18.295467-24.132267-37.768533-20.736-50.875733a6.690133 6.690133 0 0 1 0.256-0.802133c33.979733-85.9648 72.840533-111.342933 107.144534-133.7344 6.161067-4.027733 11.946667-7.816533 17.749333-11.946667 6.0928-4.334933 12.885333-8.874667 20.087467-13.653333 38.212267-25.6 90.555733-60.4672 111.8208-117.486934 24.951467-66.9184 0.1024-152.832-0.1536-153.685333a6.826667 6.826667 0 0 1 11.946666-6.161067c46.609067 59.170133 63.505067 108.987733 69.512534 205.0048 3.822933 79.104-34.2528 151.1936-107.2128 203.093334l-1.536 1.092266c-4.113067 2.9696-12.373333 9.454933-22.818134 17.681067-26.504533 20.872533-66.56 52.394667-91.835733 67.822933a79.086933 79.086933 0 0 1-41.693867 11.9296z m-60.142933-65.3824c-3.310933 13.3632 1.9456 25.2416 16.059733 36.317867 3.908267 3.072 39.406933 29.3888 78.626134 5.461333 24.576-15.0016 64.238933-46.216533 90.453333-66.884266 10.581333-8.328533 18.926933-14.8992 23.278933-18.039467l1.604267-1.143467c69.034667-49.134933 105.079467-117.0432 101.495467-191.232-4.949333-79.240533-16.810667-124.450133-47.581867-171.1104 5.512533 32.699733 9.6256 84.650667-7.2704 129.979734-22.749867 61.115733-77.175467 97.4848-116.974933 124.074666-7.099733 4.744533-13.806933 9.216-19.746134 13.448534s-12.1344 8.277333-18.193066 12.151466c-34.133333 22.340267-69.4272 45.380267-101.751467 126.976z" fill="#E8D4AB" p-id="10104"></path><path d="M461.346133 851.712s4.744533 40.448-39.458133 27.204267c-6.007467-1.809067-15.684267-7.492267-17.237333-12.6464" fill="#D5382E" p-id="10105"></path><path d="M437.828267 886.698667a61.269333 61.269333 0 0 1-17.408-2.884267c-5.444267-1.706667-18.210133-7.936-20.667734-16.059733l9.796267-2.9696c0.7168 2.338133 7.799467 7.424 13.806933 9.233066 12.2368 3.669333 21.162667 3.242667 26.538667-1.262933 7.765333-6.519467 6.4-20.309333 6.382933-20.48l10.24-1.194667c0.085333 0.785067 2.116267 19.336533-9.966933 29.474134a28.074667 28.074667 0 0 1-18.722133 6.144z" fill="#E8D4AB" p-id="10106"></path><path d="M448.324267 484.949333c-17.322667 6.280533-81.92 6.075733-97.774934 17.339734 0 0-41.437867-77.1584-44.7488-86.237867a2.4576 2.4576 0 0 0-4.778666 0.699733c-0.597333 10.632533-0.4608 24.8832 2.935466 37.034667 5.853867 20.974933-20.8384 45.3632-24.968533 48.981333a2.440533 2.440533 0 0 0-0.733867 1.160534l-18.961066 64.853333a2.389333 2.389333 0 0 0-0.1024 0.682667c0 5.358933 0.546133 71.082667 21.384533 85.179733 21.7088 14.6944 18.773333 6.673067 18.773333 6.673067s-23.108267-53.1968-5.802666-83.268267 47.786667-33.7408 64.136533-33.7408c15.803733 0 68.369067-5.597867 93.610667-55.9104a2.474667 2.474667 0 0 0-2.9696-3.447467z" fill="#D5382E" p-id="10107"></path><path d="M297.915733 668.535467c-4.181333 0-10.24-3.037867-20.206933-9.745067-22.357333-15.138133-23.6032-77.124267-23.637333-89.3952a7.543467 7.543467 0 0 1 0.3072-2.133333l18.961066-64.768a7.543467 7.543467 0 0 1 2.286934-3.566934c10.632533-9.3184 27.528533-29.013333 23.3984-43.741866-3.6352-13.1584-3.771733-28.279467-3.1232-38.7584a7.5776 7.5776 0 0 1 14.6944-2.167467c2.4576 6.7072 29.201067 57.122133 42.0352 81.066667 12.509867-5.410133 35.106133-7.662933 57.053866-9.847467 15.6672-1.553067 30.446933-3.037867 36.898134-5.376a7.594667 7.594667 0 0 1 9.352533 10.564267c-28.0576 55.9104-86.715733 58.743467-98.2016 58.743466-19.012267 0-44.817067 5.410133-59.733333 31.1808-15.872 27.460267 5.717333 78.08 5.9392 78.506667l0.1024 0.238933a6.724267 6.724267 0 0 1-1.928534 7.68 6.587733 6.587733 0 0 1-4.1984 1.518934z m-33.5872-98.7648c0.085333 23.671467 4.181333 70.434133 19.131734 80.554666 3.413333 2.304 6.058667 3.9424 8.106666 5.12-5.870933-16.452267-16.861867-54.869333-2.372266-79.940266 17.339733-30.0032 46.865067-36.3008 68.573866-36.3008 6.161067 0 59.136-1.3824 86.152534-47.786667-8.192 1.706667-20.002133 2.9184-33.194667 4.232533-21.777067 2.167467-48.878933 4.864-57.1904 10.769067a5.12 5.12 0 0 1-7.4752-1.706667c-3.413333-6.468267-29.013333-54.1184-40.1408-76.4416a97.28 97.28 0 0 0 2.986667 24.132267c6.4 22.9376-19.234133 47.786667-25.941334 53.691733z m-0.1024 0.3584z m18.158934-63.522134z" fill="#E8D4AB" p-id="10108"></path><path d="M278.562133 503.057067s-19.592533 66.372267 0 118.920533 71.68 80.213333 101.102934 101.102933 62.805333 32.955733 92.16 107.349334c3.1232 11.946667-1.3312 23.159467-13.806934 32.955733s-38.7584 20.48-65.024 4.4544-74.837333-56.1152-85.9648-64.136533-84.189867-57.019733-79.735466-149.213867c4.5056-71.253333 16.520533-107.332267 51.268266-151.432533z" fill="#D5382E" p-id="10109"></path><path d="M421.700267 881.220267a59.4944 59.4944 0 0 1-31.3344-8.994134c-19.012267-11.605333-49.169067-35.328-69.102934-51.029333-7.867733-6.1952-14.08-11.093333-17.186133-13.312l-1.160533-0.8192c-54.903467-39.0656-83.626667-93.3376-80.6912-152.7808 4.522667-72.3456 17.237333-109.841067 52.309333-154.368a5.12 5.12 0 0 1 8.925867 4.625067c-0.1536 0.631467-18.926933 65.365333-0.1536 115.6608 16.008533 42.922667 55.3984 69.2224 84.1728 88.4224 5.410133 3.618133 10.530133 7.031467 15.121066 10.24s8.721067 5.956267 13.3632 8.977066c25.8048 16.861867 55.057067 35.959467 80.622934 100.693334a5.358933 5.358933 0 0 1 0.187733 0.597333c2.56 9.864533 1.928533 24.507733-15.598933 38.263467a65.348267 65.348267 0 0 1-39.4752 13.824z m-153.3952-355.345067c-23.1936 35.157333-32.119467 69.205333-35.84 128.938667-2.696533 55.773867 24.439467 106.9056 76.407466 143.872l1.211734 0.853333c3.2768 2.3552 9.5744 7.304533 17.527466 13.653333 19.7632 15.547733 49.6128 39.048533 68.113067 50.346667 29.525333 18.005333 56.32-1.706667 59.204267-4.113067 10.615467-8.3456 14.574933-17.288533 12.0832-27.306666-24.337067-61.44-50.8928-78.762667-76.5952-95.573334-4.522667-2.952533-9.181867-6.007467-13.653334-9.216s-9.506133-6.5536-14.865066-10.120533c-29.934933-19.985067-70.912-47.342933-88.081067-93.371733-12.782933-34.218667-9.659733-73.352533-5.512533-97.962667z" fill="#E8D4AB" p-id="10110"></path></svg>