<?xml version="1.0" standalone="no"?><!DOCTYPE svg PUBLIC "-//W3C//DTD SVG 1.1//EN" "http://www.w3.org/Graphics/SVG/1.1/DTD/svg11.dtd"><svg t="1661873953128" class="icon" viewBox="0 0 1024 1024" version="1.1" xmlns="http://www.w3.org/2000/svg" p-id="3272" width="128" height="128" xmlns:xlink="http://www.w3.org/1999/xlink"><path d="M813.7 267.5c-14-27.8-39.3-51.1-69.9-56.9-25.8-4.9-52.7 3-75.6 15.9-22.9 12.9-42.6 30.7-62.8 47.5-45.1 37.6-93.5 71.3-144.4 100.6-64.4 37.1-140.3 57.8-195.3 109.8C216.4 531 188 596.9 188 664.8 187.9 801.9 299 913 436.1 913c106.3 0 182.7-73.1 236.7-157.7 61.6-96.5 122-207.2 148.3-318.9 6.1-25.9 9.6-51.4 10-78.1 0.4-31.1-3.4-63-17.4-90.8z" fill="#7773C9" p-id="3273"></path><path d="M672.9 755.3c44.1-69.1 87.6-145.4 118.4-224.2-65.6 65.6-133.9 128.5-210.9 180-99.2 66.3-215.1 113.1-334.1 113.6 45.5 54 113.7 88.4 189.9 88.4 106.3-0.1 182.7-73.2 236.7-157.8z" fill="#3A2C4F" opacity=".1" p-id="3274"></path><path d="M853.4 368.6c1.2-46.3-8.3-94.3-35.3-132-51-71.3-131.2-64.5-198.5-23.3-13.9 8.5-28.2 17.5-37.3 31.1-9.1 13.5-11.8 32.8-1.8 45.8 9.7 12.6 27.6 15.3 43.4 14.1 15.8-1.2 31.8-5.1 47.4-2 21.9 4.3 38.8 21.9 50.5 40.9 11.7 19 19.8 40.1 32.6 58.3 16.5 23.4 48 42.1 73 28.1 20.2-11.4 25.5-37.9 26-61z" fill="#BEE294" p-id="3275"></path><path d="M846.9 154.5c-1.1 13.2-8.5 25.3-17.9 34.6-5.8 5.7-27.5 25-35.4 27.1-8.1 2.1-9.3-3.2-13.3-12.1-1.7-3.8-1.8-8.2-1.9-12.4-0.7-26.8-9.9-86.7 30-82.8 22.6 2.2 40.5 22.7 38.5 45.6z" fill="#BEE294" p-id="3276"></path><path d="M361.5 496.5c-4.3-5.2-12-6-17.3-1.7-13.1 10.7-24.9 23.3-35.2 37.3-4 5.5-2.8 13.1 2.7 17.1 2.2 1.6 4.7 2.4 7.2 2.4 3.8 0 7.5-1.7 9.9-5 9-12.4 19.4-23.4 30.9-32.8 5.3-4.3 6.1-12 1.8-17.3zM303.3 594.1c2.4-6.3-0.8-13.4-7.1-15.8-6.3-2.4-13.4 0.8-15.8 7.1-20.9 55.4-20.3 116.6 1.6 159.8 2.2 4.3 6.5 6.7 11 6.7 1.9 0 3.8-0.4 5.5-1.3 6-3.1 8.5-10.4 5.4-16.5-18.6-36.6-18.9-91.6-0.6-140z" fill="#5E54AD" p-id="3277"></path><path d="M828.1 229.4c-4.3-6-8.8-11.5-13.6-16.7 8-2.7 15.5-7.6 23-15 12.6-12.4 20.3-27.5 21.6-42.3 2.5-29.5-19.7-55.9-49.6-58.8-1.8-0.2-3.6-0.3-5.4-0.3-13.5 0-21.3 5.7-25.6 10.4-12.8 14.4-10.1 38.2-7.7 59.2 0.7 5.8 1.3 11.3 1.5 15.9-16.9-7.7-35.4-11.7-55.1-11.7-33.2 0-69.2 11.3-104 32.6-13.4 8.2-30.1 18.4-41.1 34.6-11.1 16.5-13.2 36.7-6.1 52.2a988.42 988.42 0 0 1-111.3 74.3c-21.8 12.5-45.6 23.5-68.6 34-45 20.7-91.6 42.1-129 77.4-51.8 49-81.6 118-81.6 189.3C175.5 808.1 292.3 925 436 925c94.7 0 177.8-55 247.1-163.4C762.6 637.1 810.2 535 832.7 440.2l0.6-0.3c20.5-11.5 31.4-35.5 32.3-71.3 1.1-38-4.7-93.3-37.5-139.2zM796.8 123c0.5-0.5 2-2.2 7.3-2.2 0.9 0 1.9 0.1 3 0.2 16.3 1.6 29 16.4 27.6 32.3-0.8 9-5.9 18.6-14.3 26.9-5.2 5.1-10.3 8.4-15.1 9.6-1.9 0.5-3.7 0.8-5.1 0.8-1.5 0-2.1-0.3-2.1-0.3s-0.1-0.1-0.2-0.3c-0.7-1.7-0.8-4.9-0.9-7.8-0.2-5.8-0.9-12.3-1.7-19.1-1.6-13.5-4-34 1.5-40.1zM662.5 748.7c-64.5 100.9-140.6 152-226.4 152-130.1 0-235.9-105.8-235.9-235.9 0-64.6 26.9-127.1 73.9-171.5 34.5-32.6 77.2-52.2 122.4-73 23.5-10.8 47.8-22 70.6-35.1 40.1-23.1 78.8-49 115.4-77.2 9.2 5.7 21 8.7 34.9 8.7 2.4 0 4.9-0.1 7.4-0.3 4.8-0.4 9.6-0.9 14.2-1.5 6.9-0.8 13.4-1.7 19.6-1.7 3.8 0 7.1 0.3 10.3 0.9 19.4 3.9 33.8 21.3 42.5 35.3 4.8 7.8 9 15.9 13.4 24.6 5.8 11.5 11.9 23.3 19.6 34.3 12 17 35 36.8 61.6 38-22.9 89-68.8 185.5-143.5 302.4zM841.2 368c-0.5 18.3-4.3 41.9-19.7 50.5-3.9 2.2-8.1 3.3-12.7 3.3-14.6 0-32.8-11.4-44.3-27.7-6.8-9.6-12.2-20.2-17.9-31.4-4.4-8.7-9-17.7-14.4-26.4-16.1-26-36.3-42.1-58.6-46.5-4.7-0.9-9.6-1.4-15-1.4-7.8 0-15.3 0.9-22.6 1.8-4.5 0.6-8.8 1.1-13 1.4-1.9 0.1-3.8 0.2-5.6 0.2-9 0-21.1-1.7-27.2-9.6-6.6-8.6-3.9-22.3 2.3-31.4 7.4-10.9 19.1-18.6 33.6-27.5 31-19 62.5-29 91.2-29 37.1 0 67.7 16.5 90.9 48.9 28.8 40.6 33.8 90.3 33 124.8z" p-id="3278"></path></svg>