<?xml version="1.0" standalone="no"?><!DOCTYPE svg PUBLIC "-//W3C//DTD SVG 1.1//EN" "http://www.w3.org/Graphics/SVG/1.1/DTD/svg11.dtd"><svg t="1659516756346" class="icon" viewBox="0 0 1024 1024" version="1.1" xmlns="http://www.w3.org/2000/svg" p-id="1788" xmlns:xlink="http://www.w3.org/1999/xlink" width="95" height="95"><defs><style type="text/css"></style></defs><path d="M139.636364 0h744.727272a139.636364 139.636364 0 0 1 139.636364 139.636364v744.727272a139.636364 139.636364 0 0 1-139.636364 139.636364H139.636364a139.636364 139.636364 0 0 1-139.636364-139.636364V139.636364a139.636364 139.636364 0 0 1 139.636364-139.636364z m183.156363 296.354909l137.029818-12.241454L497.570909 201.69697 217.212121 219.229091v568.32l251.221334-0.325818 34.428121-78.444606H322.792727v-178.734546h140.350061l37.065697-78.785939H322.792727v-154.903273z m203.558788-90.686061V822.30303l106.247758-50.967272v-21.193697l78.118788-0.325819 101.624242-88.700121 0.310303-455.447273H526.36703z m106.247758 79.111758h75.139879v386.59103h-75.139879V284.780606z" fill="#F15A4A" p-id="1789"></path></svg>