<?xml version="1.0" standalone="no"?><!DOCTYPE svg PUBLIC "-//W3C//DTD SVG 1.1//EN" "http://www.w3.org/Graphics/SVG/1.1/DTD/svg11.dtd"><svg t="1649507730230" class="icon" viewBox="0 0 1024 1024" version="1.1" xmlns="http://www.w3.org/2000/svg" p-id="1988" xmlns:xlink="http://www.w3.org/1999/xlink" width="80" height="80"><defs><style type="text/css">@font-face { font-family: feedback-iconfont; src: url("//at.alicdn.com/t/font_1031158_u69w8yhxdu.woff2?t=1630033759944") format("woff2"), url("//at.alicdn.com/t/font_1031158_u69w8yhxdu.woff?t=1630033759944") format("woff"), url("//at.alicdn.com/t/font_1031158_u69w8yhxdu.ttf?t=1630033759944") format("truetype"); }
</style></defs><path d="M512.021489 12.128201c276.045505 0 499.843147 223.797642 499.843147 499.842123 0 276.103833-223.797642 499.902498-499.843147 499.902498-276.089507 0-499.886125-223.797642-499.886125-499.902498 0-276.044482 223.796618-499.842123 499.886125-499.842123z m0.118704 727.904896c3.672639 0 7.227597-1.540073 9.774601-4.265131l199.213783-212.838054 0.414438-0.414439c24.228772-26.419667 37.615637-61.192565 37.615637-98.097006 0-37.378231-13.623248-72.505192-38.503865-99.044585-25.056625-26.715402-58.407131-41.465308-93.950578-41.465308-29.677867 0-57.696958 10.129688-81.094807 29.382132-13.565943 11.136619-25.057649 25.176352-33.587913 40.872815-8.589615-15.697486-20.006619-29.737219-33.630891-40.872815-23.398873-19.193093-51.358612-29.382132-81.036479-29.382132-35.5414 0-68.891906 14.749906-93.950577 41.465308-24.820242 26.539393-38.503865 61.666355-38.503866 99.044585 0 36.904441 13.44724 71.677339 37.674989 98.097006l0.413415 0.414439 199.377511 212.898429c2.548027 2.664684 6.101963 4.204757 9.774602 4.204756z" fill="#E50012" p-id="1989"></path></svg>