<?xml version="1.0" standalone="no"?><!DOCTYPE svg PUBLIC "-//W3C//DTD SVG 1.1//EN" "http://www.w3.org/Graphics/SVG/1.1/DTD/svg11.dtd"><svg t="1649507363373" class="icon" viewBox="0 0 1024 1024" version="1.1" xmlns="http://www.w3.org/2000/svg" p-id="1647" xmlns:xlink="http://www.w3.org/1999/xlink" width="80" height="80"><defs><style type="text/css">@font-face { font-family: feedback-iconfont; src: url("//at.alicdn.com/t/font_1031158_u69w8yhxdu.woff2?t=1630033759944") format("woff2"), url("//at.alicdn.com/t/font_1031158_u69w8yhxdu.woff?t=1630033759944") format("woff"), url("//at.alicdn.com/t/font_1031158_u69w8yhxdu.ttf?t=1630033759944") format("truetype"); }
</style></defs><path d="M512 113.777778c219.97037 0 398.222222 178.251852 398.222222 398.222222S731.97037 910.222222 512 910.222222 113.777778 731.97037 113.777778 512s178.251852-398.222222 398.222222-398.222222m0-56.888889C260.740741 56.888889 56.888889 260.740741 56.888889 512s203.851852 455.111111 455.111111 455.111111 455.111111-203.851852 455.111111-455.111111S763.259259 56.888889 512 56.888889z" fill="#0097FF" p-id="1648"></path><path d="M511.051852 967.111111c-91.97037 0-184.888889-91.97037-204.8-201.955555-21.807407-123.259259 51.2-227.555556 196.266667-279.703704 118.518519-42.666667 177.303704-121.362963 160.237037-216.177778C648.533333 185.837037 578.37037 113.777778 512 113.777778V56.888889c94.814815 0 187.733333 91.022222 206.696296 201.955555 21.807407 123.259259-52.148148 227.555556-197.214815 279.703704-118.518519 42.666667-177.303704 121.362963-160.237037 216.177778C376.414815 838.162963 445.62963 910.222222 511.051852 910.222222h0.948148l0.948148 56.888889h-1.896296z" fill="#0097FF" p-id="1649"></path><path d="M449.422222 379.259259c-47.407407 0-85.333333-37.925926-85.333333-85.333333s37.925926-85.333333 85.333333-85.333333 85.333333 37.925926 85.333334 85.333333-37.925926 85.333333-85.333334 85.333333z m0-113.777778c-16.118519 0-28.444444 12.325926-28.444444 28.444445s12.325926 28.444444 28.444444 28.444444 28.444444-12.325926 28.444445-28.444444c0-15.17037-12.325926-28.444444-28.444445-28.444445zM568.888889 823.940741c-47.407407 0-85.333333-37.925926-85.333333-85.333334s37.925926-85.333333 85.333333-85.333333 85.333333 37.925926 85.333333 85.333333-37.925926 85.333333-85.333333 85.333334z m0-113.777778c-16.118519 0-28.444444 12.325926-28.444445 28.444444s12.325926 28.444444 28.444445 28.444445 28.444444-12.325926 28.444444-28.444445-12.325926-28.444444-28.444444-28.444444z" fill="#0097FF" p-id="1650"></path></svg>