<?xml version="1.0" standalone="no"?><!DOCTYPE svg PUBLIC "-//W3C//DTD SVG 1.1//EN" "http://www.w3.org/Graphics/SVG/1.1/DTD/svg11.dtd"><svg t="1658305506294" class="icon" viewBox="0 0 1024 1024" version="1.1" xmlns="http://www.w3.org/2000/svg" p-id="7747" xmlns:xlink="http://www.w3.org/1999/xlink" width="100" height="100"><defs><style type="text/css"></style></defs><path d="M619.8 931.5h-392c-86 0-126-40-126-108v-420c-28-8-36-22-36-46v-90c0-30 14-44 82-44h754c46 0 60 18 60 48v86c0 30-10 46-46 48 4 22 0 348 0 414 0 68-38 112-124 112h-172z" fill="#A4BEFF" p-id="7748"></path><path d="M103.8 405.5h816v132h-816v-132z" fill="#5B79FB" p-id="7749"></path><path d="M471.5 405.5h138v524h-138v-524z" fill="#F7554D" p-id="7750"></path><path d="M717.3 155c-4-30-14-74-52-54-42 24-114 60-136 74-2.4 1.5-4.6 3-6.6 4.6-1.9-1.6-3.9-3.2-6.2-4.6-22-12-92-50-136-74-36-20-48 24-52 54s-4 70 36 70h77.3v706.5h138V225h101.5c38 0 38-40 36-70z" fill="#FF7E71" p-id="7751"></path></svg>