<?xml version="1.0" standalone="no"?><!DOCTYPE svg PUBLIC "-//W3C//DTD SVG 1.1//EN" "http://www.w3.org/Graphics/SVG/1.1/DTD/svg11.dtd"><svg t="1594097029727" class="icon" viewBox="0 0 1024 1024" version="1.1" xmlns="http://www.w3.org/2000/svg" p-id="10477" xmlns:xlink="http://www.w3.org/1999/xlink" width="200" height="200"><defs><style type="text/css"></style></defs><path d="M347.733333 541.866667c-17.066667 0-32-14.933333-32-32 0-123.733333 85.333333-253.866667 243.2-253.866667 121.6 0 221.866667 89.6 236.8 209.066667 2.133333 17.066667-10.666667 34.133333-27.733333 36.266666-17.066667 2.133333-34.133333-10.666667-36.266667-27.733333-10.666667-87.466667-85.333333-153.6-172.8-153.6-117.333333 0-179.2 96-179.2 189.866667 0 17.066667-14.933333 32-32 32z" fill="#FFBB12" p-id="10478"></path><path d="M819.2 428.8c-23.466667 0-44.8 4.266667-66.133333 10.666667-17.066667 6.4-25.6 23.466667-19.2 40.533333 6.4 17.066667 23.466667 25.6 40.533333 19.2 14.933333-4.266667 29.866667-8.533333 44.8-8.533333 74.666667 0 136.533333 61.866667 136.533333 136.533333 0 74.666667-61.866667 136.533333-136.533333 136.533333H228.266667c-74.666667 0-136.533333-61.866667-136.533334-136.533333 0-74.666667 61.866667-136.533333 136.533334-136.533333 36.266667 0 70.4 14.933333 96 40.533333 12.8 12.8 32 12.8 44.8 0 12.8-12.8 12.8-32 0-44.8-38.4-38.4-87.466667-57.6-140.8-57.6-110.933333 0-200.533333 89.6-200.533334 200.533333s89.6 200.533333 200.533334 200.533334h590.933333c110.933333 0 200.533333-89.6 200.533333-200.533334s-89.6-200.533333-200.533333-200.533333z" fill="#543E3E" p-id="10479"></path></svg>