<?xml version="1.0" standalone="no"?><!DOCTYPE svg PUBLIC "-//W3C//DTD SVG 1.1//EN" "http://www.w3.org/Graphics/SVG/1.1/DTD/svg11.dtd"><svg t="1595038376521" class="icon" viewBox="0 0 1024 1024" version="1.1" xmlns="http://www.w3.org/2000/svg" p-id="3341" xmlns:xlink="http://www.w3.org/1999/xlink" width="100" height="100"><defs><style type="text/css"></style></defs><path d="M427.631 150.163c-58.267 95.022-141.511 155.612-249.73 181.765-108.217 26.155-126.224 81.673-54.019 166.554 72.204 84.883 103.998 182.918 95.387 294.104s38.533 145.499 141.43 102.936c102.893-42.562 205.788-42.562 308.684 0 102.891 42.562 150.036 8.25 141.421-102.936-8.608-111.186 23.188-209.221 95.393-294.104 72.201-84.881 54.195-140.399-54.021-166.554-108.217-26.153-191.463-86.743-249.73-181.765-58.272-95.024-116.542-95.024-174.815 0z" fill="#FFA820" p-id="3342"></path><path d="M866.566 335.734c23.802 49.345 37.995 104.195 40.155 162.121 68.269-80.619 54.888-134.66-40.155-162.121zM92.569 453.413a406.489 406.489 0 0 1 28.373-100.714c-41.618 23.102-51.081 56.672-28.373 100.714zM355.737 897.531c-51.473-19.016-98.077-48.079-137.43-84.814-1.449 93.431 44.362 121.703 137.43 84.814zM573.729 111.044c-37.372-40.921-74.744-42.756-112.116-5.506a414.758 414.758 0 0 1 35.994-1.564c26.012 0 51.456 2.432 76.122 7.07zM656.98 890.605a462.555 462.555 0 0 1 12.403 4.917c102.891 42.562 150.036 8.25 141.421-102.936a465.55 465.55 0 0 1-0.891-14.477c-41.179 48.53-93.465 87.341-152.933 112.496z" fill="#FEAC33" p-id="3343"></path><path d="M613.07 166.677a461.698 461.698 0 0 1-10.624-16.514c-9.572-15.61-19.144-28.638-28.717-39.119-24.666-4.638-50.109-7.07-76.122-7.07-12.129 0-24.133 0.531-35.994 1.564-10.072 10.039-20.144 22.916-30.216 38.633a356.411 356.411 0 0 1 48.778-3.343c47.008-0.001 91.87 9.183 132.895 25.849zM164.416 335.479c-17.11 4.887-31.599 10.627-43.473 17.219A406.5 406.5 0 0 0 92.57 453.412c7.203 13.97 17.636 28.992 31.312 45.069a470.582 470.582 0 0 1 3.081 3.663 361.655 361.655 0 0 1-0.094-8.011c-0.001-57.054 13.529-110.947 37.547-158.654zM906.196 498.482c0.179-0.21 0.348-0.417 0.525-0.626-2.159-57.927-16.353-112.776-40.155-162.121a337.172 337.172 0 0 0-14.391-3.806c-25.257-6.104-49.135-14.109-71.671-23.964 33.581 54.058 52.977 117.848 52.977 186.17 0 195.126-158.181 353.307-353.306 353.307-102.974 0-195.654-44.058-260.231-114.346 1.116 19.394 0.895 39.223-0.675 59.491a326.777 326.777 0 0 0-0.963 20.131c39.353 36.734 85.957 65.797 137.43 84.814 1.64-0.65 3.293-1.318 4.962-2.009 98.759-40.852 197.519-42.486 296.281-4.917 59.469-25.156 111.754-63.966 152.933-112.497-4.86-105.237 27.23-198.448 96.284-279.627z" fill="#FEB133" p-id="3344"></path><path d="M480.175 847.44c195.126 0 353.306-158.181 353.306-353.307 0-68.322-19.396-132.112-52.977-186.17-68.304-29.87-124.124-76.955-167.434-141.286-41.024-16.666-85.887-25.85-132.895-25.85a356.4 356.4 0 0 0-48.778 3.343 363.085 363.085 0 0 0-3.766 5.992 451.062 451.062 0 0 1-22.343 33.089 298.622 298.622 0 0 1 57.456-5.57c164.143 0 297.207 133.064 297.207 297.207S626.887 772.096 462.744 772.096 165.536 639.032 165.536 474.889c0-55.099 15.012-106.684 41.141-150.922a454.734 454.734 0 0 1-28.776 7.961 337.634 337.634 0 0 0-13.485 3.552c-24.017 47.707-37.547 101.599-37.547 158.654 0 2.678 0.035 5.347 0.094 8.011 57.074 68.495 88.064 145.479 92.981 230.949 64.577 70.289 157.257 114.346 260.231 114.346z" fill="#FEB633" p-id="3345"></path><path d="M462.744 772.096c164.143 0 297.207-133.064 297.207-297.207S626.887 177.681 462.744 177.681a298.622 298.622 0 0 0-57.456 5.57c-11.787 15.877-24.419 30.59-37.883 44.155 24.44-8.34 50.644-12.872 77.908-12.872 133.16 0 241.108 107.948 241.108 241.108s-107.948 241.11-241.109 241.11-241.108-107.948-241.108-241.109c0-57.298 20-109.917 53.382-151.287-16.245 7.536-33.208 14.082-50.909 19.611-26.13 44.238-41.141 95.823-41.141 150.922 0 164.143 133.065 297.207 297.208 297.207z" fill="#FFBC34" p-id="3346"></path><path d="M445.312 696.752c133.16 0 241.108-107.948 241.108-241.108S578.473 214.535 445.312 214.535c-27.264 0-53.468 4.531-77.908 12.872-31.899 32.14-68.507 57.787-109.819 76.95-33.382 41.37-53.382 93.989-53.382 151.287 0.001 133.16 107.949 241.108 241.109 241.108z m-17.431-445.363c102.178 0 185.009 82.831 185.009 185.009s-82.831 185.009-185.009 185.009-185.009-82.831-185.009-185.009 82.831-185.009 185.009-185.009z" fill="#FFC134" p-id="3347"></path><path d="M427.881 621.407c102.178 0 185.009-82.831 185.009-185.009s-82.831-185.009-185.009-185.009-185.009 82.831-185.009 185.009 82.831 185.009 185.009 185.009zM410.45 288.243c71.195 0 128.91 57.715 128.91 128.91s-57.715 128.91-128.91 128.91-128.91-57.715-128.91-128.91 57.715-128.91 128.91-128.91z" fill="#FFC634" p-id="3348"></path><path d="M410.45 417.153m-128.91 0a128.91 128.91 0 1 0 257.82 0 128.91 128.91 0 1 0-257.82 0Z" fill="#FFCB34" p-id="3349"></path><path d="M515.039 96.895c10.392 0 20.967 4.503 32.329 13.768 12.927 10.54 26.295 26.996 39.733 48.91 60.575 98.786 148.336 162.661 260.846 189.852 24.94 6.028 44.683 13.674 58.679 22.726 12.312 7.962 19.864 16.651 23.086 26.56 3.226 9.921 2.224 21.407-3.063 35.114-6.01 15.58-17.504 33.411-34.163 52.995-75.056 88.236-108.576 191.578-99.628 307.157 3.317 42.811-2.285 73.386-16.199 88.42-7.971 8.612-19.303 12.799-34.643 12.799-17.473 0-39.595-5.486-65.753-16.307C622.862 856.8 568.619 845.6 515.039 845.6c-53.579 0-107.822 11.2-161.221 33.289-26.159 10.82-48.283 16.307-65.756 16.307-15.337 0-26.668-4.187-34.64-12.801-13.918-15.037-19.522-45.612-16.207-88.419 8.952-115.578-24.566-218.921-99.623-307.157-16.66-19.585-28.155-37.415-34.165-52.995-5.287-13.707-6.29-25.193-3.063-35.114 3.222-9.909 10.774-18.597 23.086-26.56 13.996-9.052 33.739-16.698 58.679-22.726 112.51-27.19 200.271-91.066 260.846-189.852 13.439-21.915 26.807-38.37 39.734-48.91 11.363-9.264 21.938-13.767 32.33-13.767m0-18c-29.136 0-58.271 23.756-87.408 71.268-58.267 95.022-141.511 155.612-249.73 181.765-108.217 26.155-126.223 81.673-54.019 166.554 72.204 84.883 103.999 182.918 95.387 294.104-6.227 80.404 16.708 120.61 68.793 120.61 19.941 0 44.149-5.89 72.637-17.674C412.145 874.241 463.592 863.6 515.04 863.6s102.895 10.641 154.343 31.922c28.48 11.781 52.696 17.674 72.633 17.674 52.092 0 75.018-40.2 68.788-120.61-8.608-111.186 23.188-209.221 95.393-294.104 72.201-84.881 54.195-140.399-54.021-166.554-108.217-26.154-191.463-86.743-249.73-181.765-29.136-47.512-58.272-71.268-87.407-71.268z" fill="#FFA820" p-id="3350"></path><path d="M473.057 349.011c-27.991 45.521-67.972 74.548-119.948 87.078-51.98 12.527-60.628 39.126-25.947 79.788 34.678 40.664 49.952 87.63 45.816 140.894-4.139 53.266 18.504 69.703 67.928 49.314 49.42-20.391 98.843-20.391 148.264 0 49.42 20.389 72.062 3.953 67.928-49.314-4.135-53.265 11.133-100.23 45.815-140.894 34.681-40.662 26.034-67.261-25.947-79.788-51.977-12.531-91.961-41.558-119.947-87.078-27.99-45.524-55.977-45.524-83.962 0z" fill="#FFE3B4" p-id="3351"></path><path d="M316.189 368.714c-6.422 0-12.636-3.445-15.882-9.502-4.695-8.763-1.397-19.672 7.365-24.367 60.839-32.598 98.424-72.405 98.796-72.804 6.792-7.26 18.181-7.641 25.442-0.85 7.26 6.791 7.641 18.182 0.85 25.442-1.687 1.803-42.069 44.572-108.086 79.944a17.923 17.923 0 0 1-8.485 2.137z" fill="#FFFFFF" p-id="3352"></path><path d="M250.695 396.852c-7.311 0-14.186-4.487-16.878-11.742-3.458-9.32 1.293-19.68 10.613-23.138l10.546-3.914c9.321-3.459 19.68 1.293 23.138 10.613 3.458 9.32-1.293 19.68-10.613 23.138l-10.546 3.914a17.963 17.963 0 0 1-6.26 1.129z" fill="#FFFFFF" p-id="3353"></path></svg>