<?xml version="1.0" standalone="no"?><!DOCTYPE svg PUBLIC "-//W3C//DTD SVG 1.1//EN" "http://www.w3.org/Graphics/SVG/1.1/DTD/svg11.dtd"><svg t="1600232057544" class="icon" viewBox="0 0 1024 1024" version="1.1" xmlns="http://www.w3.org/2000/svg" p-id="2761" width="100" height="100" xmlns:xlink="http://www.w3.org/1999/xlink"><defs><style type="text/css"></style></defs><path d="M112 16h736v992H112z" fill="#EEBFD9" p-id="2762"></path><path d="M561.472 729.472A15.68 15.68 0 0 0 560 736v96h-16a16 16 0 1 0 0 32h32a16 16 0 0 0 16-16v-104.64l27.296-27.296c3.328-3.328 4.864-7.728 4.752-12.112a16.48 16.48 0 0 0-4.784-12.208L592 664.48V560a16 16 0 0 0-16-16h-32a16 16 0 1 0 0 32h16v95.808c-0.192 4.48 1.312 9.008 4.736 12.432l19.824 19.824-19.36 19.36c-1.76 1.76-2.928 3.84-3.728 6.048zM368 743.36V848a16 16 0 0 0 16 16h32a16 16 0 1 0 0-32h-16v-96a15.68 15.68 0 0 0-1.472-6.528 16 16 0 0 0-3.728-6.032l-19.36-19.36 19.824-19.824c3.424-3.424 4.928-7.952 4.736-12.432V576h16a16 16 0 1 0 0-32h-32a16 16 0 0 0-16 16v104.48l-27.264 27.264c-3.36 3.36-4.912 7.792-4.784 12.208-0.112 4.368 1.424 8.784 4.752 12.112L368 743.36zM896 128h-32V32a32 32 0 0 0-32-32H128a32 32 0 0 0-32 32v960a32 32 0 0 0 32 32h704a32 32 0 0 0 32-32V416h32a32 32 0 0 0 32-32V160a32 32 0 0 0-32-32z m-64 0H448a32 32 0 0 0-32 32v224a32 32 0 0 0 32 32h384v576H128V32h704v96z" fill="#2B3139" p-id="2763"></path><path d="M448 160h448v224H448z" fill="#FFFFFF" p-id="2764"></path><path d="M580.32 256.352c-0.64-4.16-3.84-16.784-18.384-16.784-16.464 0-21.744 16-21.744 31.344s5.28 31.344 21.744 31.344c11.824 0 16.464-8.32 18.544-19.024h34.544c0 23.024-18.72 47.488-52.144 47.488-36.944 0-57.888-26.064-57.888-59.808 0-35.984 22.72-59.808 57.888-59.808 31.344 0.16 48.624 16.64 51.664 45.264H580.32zM657.76 289.632c0 2.88 0.48 5.424 1.28 7.52 2.56 6.88 10.24 8.32 16.8 8.32 5.744 0 14.544-1.92 14.544-10.4 0-5.92-4.96-7.52-24.624-13.104-18.064-5.12-38.704-10.08-38.704-33.104 0-26.384 22.544-37.744 46.064-37.744 24.784 0 46.688 9.44 47.664 37.264H687.52a8.752 8.752 0 0 0-4.16-9.12c-2.88-2.08-6.88-2.88-10.384-2.88-4.8 0-12.64 1.28-12.64 7.68 0.64 8.16 16.96 9.92 33.104 14.384 16.144 4.48 32.144 12 32.144 32.944 0 29.744-27.344 39.328-52.784 39.328-12.96 0-49.888-4.64-50.208-41.088h35.168zM764.48 289.632c0 2.88 0.48 5.424 1.28 7.52 2.56 6.88 10.24 8.32 16.8 8.32 5.744 0 14.544-1.92 14.544-10.4 0-5.92-4.96-7.52-24.624-13.104-18.064-5.12-38.704-10.08-38.704-33.104 0-26.384 22.544-37.744 46.064-37.744 24.784 0 46.688 9.44 47.664 37.264H794.24a8.752 8.752 0 0 0-4.16-9.12c-2.88-2.08-6.88-2.88-10.384-2.88-4.8 0-12.64 1.28-12.64 7.68 0.64 8.16 16.96 9.92 33.104 14.384 16.144 4.48 32.144 12 32.144 32.944 0 29.744-27.344 39.328-52.784 39.328-12.96 0-49.888-4.64-50.208-41.088h35.168z" fill="#2B3139" p-id="2765"></path></svg>