<?xml version="1.0" standalone="no"?><!DOCTYPE svg PUBLIC "-//W3C//DTD SVG 1.1//EN" "http://www.w3.org/Graphics/SVG/1.1/DTD/svg11.dtd"><svg t="1662807573365" class="icon" viewBox="0 0 1024 1024" version="1.1" xmlns="http://www.w3.org/2000/svg" p-id="6232" xmlns:xlink="http://www.w3.org/1999/xlink" width="128" height="128"><path d="M705.6 211.4l-11.3-8.6c4.6-9.6 9.1-24.3 11.3-27.6l51.3-53.3c3.7-5.6 4-12.7 0.9-18.6-3.1-5.9-9.3-9.6-16-9.6H506.5c-6.7 0-12.8 3.7-16 9.6-3.1 5.9-2.8 13 0.9 18.6l51.3 53.3c2.2 3.3 6.7 18 11.3 27.6l-11.3 8.6c-87.2 67.9-153.9 206-153.9 307.8 0 153.9 119.7 153.9 235.4 153.9s235.4 0 235.4-153.9c0-101.8-66.8-239.9-154-307.8z" fill="#4CAF50" p-id="6233"></path><path d="M542.7 175.2h163v36.2h-163z" fill="#2E7D32" p-id="6234"></path><path d="M624.9 436.5m-102.2 0a102.2 102.2 0 1 0 204.4 0 102.2 102.2 0 1 0-204.4 0Z" fill="#C8E6C9" p-id="6235"></path><path d="M279 644.2s32.3 8.8 49.9-14.7l31.5-28.2c15.5-13.8 35.7-21 56.5-19.9 64 3.2 208.2 9.1 294 0.7 9.3-0.9 16 8.6 12.2 17.1l-4.9 10.9c-13.3 29.9-42.9 49.1-75.5 49.1h-77.5s-28.1-6.2-32.2 31.4v18.6c0 14.8 12 26.8 26.8 26.8h102c37.1 0 73.1-12.2 102.4-34.9 17.5-13.6 37.7-30.5 57-49.4 13.8-13.6 32.5-21 51.9-21h99.2c13.1 0 26 3.5 37.4 10.2 10.9 6.4 12.1 21.7 2.4 29.7L840.2 813c-34.4 28.4-77.6 44-122.2 44H279V644.2z" fill="#FFCA28" p-id="6236"></path><path d="M264.4 891.9h-48c-10.6 0-19.2-8.6-19.2-19.2V604c0-10.6 8.6-19.2 19.2-19.2h48c10.6 0 19.2 8.6 19.2 19.2v268.8c0 10.5-8.5 19.1-19.2 19.1z" fill="#ECEFF1" p-id="6237"></path><path d="M216.5 930.3h-192c-10.6 0-19.2-8.6-19.2-19.2V565.6c0-10.6 8.6-19.2 19.2-19.2h192c10.6 0 19.2 8.6 19.2 19.2v345.5c0 10.6-8.6 19.2-19.2 19.2z" fill="#455A64" p-id="6238"></path><path d="M665.1 455.1c0 8.7-2.9 15.8-8.7 21.2-5.8 5.4-13.4 8.7-22.9 9.9v16.5h-14.8v-15.9c-14.5-0.5-26.1-5.1-34.7-13.8l13.2-13.2c5.6 5.6 13.4 8.5 23.4 8.8V442l-4.7-0.6c-8.8-1.2-15.6-4.1-20.3-8.8-5-5-7.5-11.8-7.5-20.4 0-8.5 2.7-15.6 8.2-21.4 5.4-5.7 12.9-9.1 22.4-10.1v-13.2h14.8v13.1c11.8 0.7 21.4 4.7 28.9 12l-12.9 12.8c-4.3-4.1-10.3-6.5-18.1-7.1v25.6l5.6 0.9c8.9 1.4 15.6 4.1 20 8.2 5.4 5.1 8.1 12.5 8.1 22.1zM620.6 423v-24.5c-4.1 0.6-7.3 2.1-9.5 4.4-2.2 2.4-3.3 5.2-3.3 8.5 0 3 1 5.5 3.1 7.5 2.3 2.2 5.5 3.5 9.7 4.1z m24.6 32.7c0-3.8-1.1-6.8-3.2-8.8-1.9-1.8-5.3-3-10.4-3.8v25.3c9-1.2 13.6-5.4 13.6-12.7z" fill="#4CAF50" p-id="6239"></path></svg>