<?xml version="1.0" standalone="no"?><!DOCTYPE svg PUBLIC "-//W3C//DTD SVG 1.1//EN" "http://www.w3.org/Graphics/SVG/1.1/DTD/svg11.dtd"><svg t="1639214551595" class="icon" viewBox="0 0 1024 1024" version="1.1" xmlns="http://www.w3.org/2000/svg" p-id="3690" xmlns:xlink="http://www.w3.org/1999/xlink" width="200" height="200"><defs><style type="text/css"></style></defs><path d="M943.227049 859.580082v87.435297h-434.682901c98.144922 0 188.745153-32.544473 261.506665-87.435297h173.176236z" fill="#8B87C1" p-id="3691"></path><path d="M508.544148 77.681546c240.055446 0 434.682901 194.595486 434.682901 434.650932 0 141.910524-67.998127 267.900471-173.176236 347.247604-72.761512 54.890825-163.361743 87.435297-261.506665 87.435297-240.055446 0-434.650932-194.595486-434.650932-434.682901 0-240.055446 194.595486-434.650932 434.650932-434.650932z m276.372264 278.098592c0-53.548125-43.413943-96.930099-96.962068-96.930099-53.516156 0-96.930099 43.381974-96.930099 96.930099s43.413943 96.962068 96.930099 96.962068c53.548125 0 96.962068-43.413943 96.962068-96.962068z m0 337.81674c0-53.548125-43.413943-96.962068-96.962068-96.962068-53.516156 0-96.930099 43.413943-96.930099 96.962068 0 53.516156 43.413943 96.930099 96.930099 96.930099 53.548125 0 96.962068-43.413943 96.962068-96.930099z m-223.335643-168.924355c0-23.465268-19.053542-42.486841-42.51881-42.48684s-42.486841 19.021573-42.486841 42.48684c0 23.497237 19.021573 42.51881 42.486841 42.51881s42.51881-19.021573 42.51881-42.51881z m-114.481097-168.892385c0-53.548125-43.381974-96.930099-96.930099-96.930099s-96.930099 43.381974-96.930099 96.930099 43.381974 96.962068 96.930099 96.962068 96.930099-43.413943 96.930099-96.962068z m0 337.81674c0-53.548125-43.381974-96.962068-96.930099-96.962068s-96.930099 43.413943-96.930099 96.962068c0 53.516156 43.381974 96.930099 96.930099 96.930099s96.930099-43.413943 96.930099-96.930099z" fill="#8B87C1" p-id="3692"></path><path d="M508.544148 969.3937c-252.00547 0-457.029253-205.036571-457.029253-457.061222 0-252.008667 205.023783-457.029253 457.029253-457.029253 252.024651 0 457.061222 205.020586 457.061222 457.029253 0 144.74298-66.364509 277.820461-182.076414 365.111898-79.740352 60.152927-174.829034 91.949324-274.984808 91.949324z m0-869.333833c-227.328575 0-412.272611 184.944035-412.272611 412.272611 0 227.347757 184.944035 412.30458 412.272611 412.30458 90.350873 0 176.117386-28.67622 248.028522-82.92127 104.398064-78.758902 164.276058-198.812201 164.276058-329.38331 0-227.328575-184.96002-412.272611-412.30458-412.272611z" fill="#4F46A3" p-id="3693"></path><path d="M340.578864 465.529818c-65.78587 0-119.30842-53.535338-119.30842-119.340389 0-65.78587 53.52255-119.30842 119.30842-119.30842 65.789067 0 119.30842 53.52255 119.30842 119.30842 0 65.805051-53.519353 119.340389-119.30842 119.340389z m0-193.892167c-41.105779 0-74.551778 33.442802-74.551778 74.551778 0 41.12496 33.442802 74.583747 74.551778 74.583747s74.551778-33.458787 74.551778-74.583747c0-41.108976-33.442802-74.551778-74.551778-74.551778zM678.363635 465.529818c-65.78587 0-119.30842-53.535338-119.30842-119.340389 0-65.78587 53.52255-119.30842 119.30842-119.30842 65.805051 0 119.340389 53.52255 119.340389 119.30842 0 65.805051-53.535338 119.340389-119.340389 119.340389z m0-193.892167c-41.105779 0-74.551778 33.442802-74.551778 74.551778 0 41.12496 33.445999 74.583747 74.551778 74.583747 41.12496 0 74.583747-33.458787 74.583747-74.583747 0-41.108976-33.458787-74.551778-74.583747-74.551778zM340.578864 803.314589c-65.78587 0-119.30842-53.52255-119.30842-119.30842 0-65.805051 53.52255-119.340389 119.30842-119.340389 65.789067 0 119.30842 53.535338 119.30842 119.340389 0 65.78587-53.519353 119.30842-119.30842 119.30842z m0-193.892167c-41.105779 0-74.551778 33.458787-74.551778 74.583747 0 41.105779 33.442802 74.551778 74.551778 74.551778s74.551778-33.445999 74.551778-74.551778c0-41.128157-33.442802-74.583747-74.551778-74.583747zM678.363635 803.314589c-65.78587 0-119.30842-53.52255-119.30842-119.30842 0-65.805051 53.52255-119.340389 119.30842-119.340389 65.805051 0 119.340389 53.535338 119.340389 119.340389 0 65.78587-53.535338 119.30842-119.340389 119.30842z m0-193.892167c-41.105779 0-74.551778 33.458787-74.551778 74.583747 0 41.105779 33.445999 74.551778 74.551778 74.551778 41.12496 0 74.583747-33.445999 74.583747-74.551778 0-41.128157-33.458787-74.583747-74.583747-74.583747zM509.47125 579.978945c-35.766951 0-64.865162-29.110999-64.865162-64.897131 0-35.766951 29.098211-64.865162 64.865162-64.865161 35.782935 0 64.897131 29.098211 64.897131 64.865161 0 35.782935-29.114196 64.897131-64.897131 64.897131z m0-85.00565a20.134095 20.134095 0 0 0-20.10852 20.108519c0 11.106041 9.02166 20.140489 20.10852 20.140489 11.106041 0 20.140489-9.034448 20.140489-20.140489 0-11.08686-9.034448-20.10852-20.140489-20.108519zM943.227049 969.3937h-434.682901a22.378321 22.378321 0 1 1 0-44.756642h434.682901a22.378321 22.378321 0 1 1 0 44.756642zM943.227049 881.958403h-173.176236a22.378321 22.378321 0 1 1 0-44.756642h173.176236a22.378321 22.378321 0 1 1 0 44.756642z" fill="#4F46A3" p-id="3694"></path></svg>