<?xml version="1.0" standalone="no"?><!DOCTYPE svg PUBLIC "-//W3C//DTD SVG 1.1//EN" "http://www.w3.org/Graphics/SVG/1.1/DTD/svg11.dtd"><svg t="1662807780990" class="icon" viewBox="0 0 1024 1024" version="1.1" xmlns="http://www.w3.org/2000/svg" p-id="6392" xmlns:xlink="http://www.w3.org/1999/xlink" width="128" height="128"><path d="M512.149985 512.049995m-511.950005 0a511.950005 511.950005 0 1 0 1023.90001 0 511.950005 511.950005 0 1 0-1023.90001 0Z" fill="#9ACE5B" p-id="6393"></path><path d="M1024.09999 512.049995c0-19.498096-1.099893-38.796211-3.199687-57.794356L697.331901 236.976858 562.945025 208.979592H439.557075L380.962797 224.978029l-53.994727 45.995509-56.094522 33.89669L242.976272 358.964945l-27.997266 65.993555-15.998438 71.99297 15.998438 95.990625 29.997071 73.992775 39.996094 63.99375 41.995899 53.294796 335.267259 217.378771c209.479543-64.093741 361.864662-259.0747 361.864661-489.552192z" fill="#91BC55" p-id="6394"></path><path d="M511.950005 171.483254c-187.581681 0-339.666829 152.085148-339.66683 339.666829S324.368323 850.916903 511.950005 850.916903s339.666829-152.085148 339.666829-339.66683c0-187.681672-152.085148-339.76682-339.666829-339.766819z" fill="#FAAB18" p-id="6395"></path><path d="M511.950005 784.123425c-150.685285 0-272.973342-122.188068-272.973343-272.973342 0-150.685285 122.188068-272.973342 272.973343-272.973342s272.973342 122.188068 272.973342 272.973342-122.188068 272.973342-272.973342 272.973342z" fill="#FFFFFF" p-id="6396"></path><path d="M604.940924 492.251929c-12.398789-8.799141-25.897471-15.598477-40.096085-20.597989-14.298604-4.899522-27.697295-10.099014-40.096084-15.398496-12.398789-5.299482-22.797774-11.598867-30.996973-18.998145-8.29919-7.399277-12.398789-17.398301-12.398789-30.197051 0-8.39918 2.599746-16.198418 7.699248-23.397715 5.199492-7.099307 13.198711-10.698955 24.197637-10.698955 9.899033 0 17.19832 4.0996 21.997852 12.398789s7.099307 17.798262 7.099306 28.797188v8.299189H637.937701c0-37.696319-8.29919-65.793575-24.697588-84.291768-16.498389-18.498194-43.095791-29.59711-79.692217-33.196758v-31.896885H482.952837V304.970218c-66.993458 10.998926-100.490187 50.695049-100.490187 119.18836 0 22.397813 3.899619 40.496045 11.798848 54.394688 7.899229 13.998633 17.698272 25.197539 29.6971 33.69671 11.898838 8.59916 24.797578 15.498486 38.696221 20.897959 13.998633 5.299482 26.797383 10.598965 38.796211 15.898447 11.898838 5.299482 21.797871 11.598867 29.59711 18.998145 7.899229 7.399277 11.798848 17.19832 11.798848 29.6971 0 9.899033-2.799727 18.298213-8.49917 25.197539-5.699443 6.999316-13.798652 10.498975-24.397618 10.498975-10.199004 0-18.498194-3.099697-24.697588-9.299092s-9.299092-17.598281-9.299092-33.99668v-10.498975h-98.990333v14.898545c0 34.796602 8.899131 60.094131 26.897373 76.092569 17.998242 15.898447 44.395664 25.69749 79.192267 29.39713v49.395176h50.595059v-49.395176c37.796309-3.999609 66.293526-14.998535 85.791622-32.996778 19.298115-17.898252 28.997168-45.595547 28.997168-82.891905 0-23.797676-4.0996-42.795821-12.398789-57.094425-8.199199-14.498584-18.498194-25.997461-31.096963-34.796601z" fill="#EF9D1B" p-id="6397"></path><path d="M511.950005 171.483254v66.693487c150.785275 0 272.973342 122.188068 272.973342 272.973342s-122.188068 272.973342-272.973342 272.973342V850.916903c187.581681 0 339.666829-152.085148 339.666829-339.66683 0-187.681672-152.085148-339.76682-339.666829-339.766819z" fill="#DD9117" p-id="6398"></path><path d="M511.950005 749.226833v-115.988673h-1.999805c-10.199004 0-18.498194-3.099697-24.697588-9.299092s-9.299092-17.598281-9.299092-33.99668v-10.498974h-98.990333v14.898545c0 34.796602 8.899131 60.094131 26.897373 76.092569 17.998242 15.898447 44.395664 25.69749 79.192267 29.397129v49.395176H511.950005zM482.952837 304.970218c-66.993458 10.998926-100.490187 50.695049-100.490187 119.18836 0 22.397813 3.899619 40.496045 11.798848 54.394688 7.899229 13.998633 17.698272 25.197539 29.6971 33.69671 11.898838 8.59916 24.797578 15.498486 38.696221 20.897959 13.998633 5.299482 26.797383 10.598965 38.796211 15.898447 3.699639 1.699834 7.199297 3.399668 10.498975 5.299483V449.956059c-6.899326-3.799629-12.998731-8.099209-18.198223-12.69876-8.29919-7.399277-12.398789-17.398301-12.398789-30.197051 0-8.39918 2.599746-16.198418 7.699248-23.397715 4.999512-6.799336 12.59877-10.398984 22.897764-10.698955V272.973342h-28.997168v31.996876z" fill="#FAAB18" p-id="6399"></path></svg>