<?xml version="1.0" standalone="no"?><!DOCTYPE svg PUBLIC "-//W3C//DTD SVG 1.1//EN" "http://www.w3.org/Graphics/SVG/1.1/DTD/svg11.dtd"><svg t="1600232734493" class="icon" viewBox="0 0 1280 1024" version="1.1" xmlns="http://www.w3.org/2000/svg" p-id="6575" xmlns:xlink="http://www.w3.org/1999/xlink" width="125" height="100"><defs><style type="text/css"></style></defs><path d="M632.6 904c-4.2 0-8.4-1.2-12.2-3.2L582 878c-5.8-3.2-3-4.4-1-5 7.6-2.6 9.2-3.2 17.4-8 0.8-0.4 2-0.2 2.8 0.2l29.6 17.6c1 0.6 2.6 0.6 3.6 0L750 816c1-0.6 1.8-1.8 1.8-3.2v-133.4c0-1.4-0.6-2.6-1.8-3.2l-115.6-66.6c-1-0.6-2.4-0.6-3.6 0l-115.6 66.6c-1.2 0.6-1.8 2-1.8 3.2v133.4c0 1.2 0.8 2.4 1.8 3l31.6 18.2c17.2 8.6 27.8-1.6 27.8-11.6v-131.8c0-1.8 1.4-3.4 3.4-3.4h14.6c1.8 0 3.4 1.4 3.4 3.4v131.8c0 23-12.4 36-34.2 36-6.6 0-12 0-26.6-7.2l-30.4-17.4c-7.4-4.4-12.2-12.4-12.2-21v-133.4c0-8.6 4.6-16.8 12.2-21l115.6-66.8c7.4-4.2 17-4.2 24.2 0l115.6 66.8c7.4 4.4 12.2 12.4 12.2 21v133.4c0 8.6-4.6 16.8-12.2 21l-115.6 66.8c-3.4 2.2-7.6 3.4-12 3.4z m93.4-131.6c0-25-16.8-31.6-52.4-36.4-36-4.8-39.6-7.2-39.6-15.6 0-7 3-16.2 29.6-16.2 23.8 0 32.6 5.2 36.2 21.2 0.4 1.6 1.6 2.6 3.2 2.6h15c1 0 1.8-0.4 2.4-1 0.6-0.8 1-1.6 0.8-2.6-2.4-27.6-20.6-40.4-57.6-40.4-33 0-52.6 14-52.6 37.2 0 25.4 19.6 32.2 51.2 35.4 37.8 3.8 40.8 9.2 40.8 16.6 0 13-10.4 18.4-34.8 18.4-30.6 0-37.4-7.6-39.6-22.8-0.2-1.6-1.6-2.8-3.4-2.8h-15c-1.8 0-3.4 1.4-3.4 3.4 0 19.4 10.6 42.6 61.2 42.6 37 0 58-14.4 58-39.6z m109-100.2c0 12.2-10 22.2-22.2 22.2s-22.2-10-22.2-22.2c0-12.6 10.4-22.2 22.2-22.2 12-0.2 22.2 9.6 22.2 22.2z m-3.6 0c0-10.4-8.4-18.6-18.8-18.6-10.2 0-18.6 8.2-18.6 18.6 0 10.4 8.4 18.8 18.6 18.8 10.4-0.2 18.8-8.6 18.8-18.8z m-9 12.4h-5.2c-0.2-1.2-1-7.6-1-7.8-0.4-1.4-0.8-2.2-2.6-2.2h-4.4v10h-4.8v-25h8.6c3 0 8.8 0 8.8 6.6 0 4.6-3 5.6-4.8 6.2 3.4 0.2 3.6 2.4 4.2 5.6 0.2 2 0.6 5.4 1.2 6.6z m-5.6-17.6c0-3.4-2.4-3.4-3.6-3.4h-4v7h3.8c3.2 0 3.8-2.2 3.8-3.6zM274.6 382c0-5.4-2.8-10.2-7.4-12.8l-122.6-70.6c-2-1.2-4.4-1.8-6.8-2h-1.2c-2.4 0-4.6 0.8-6.8 2L7.4 369.2C2.8 371.8 0 376.8 0 382l0.2 190c0 2.6 1.4 5 3.6 6.4 2.2 1.4 5 1.4 7.4 0L84 536.6c4.6-2.8 7.4-7.6 7.4-12.8v-88.8c0-5.2 2.8-10.2 7.4-12.8l31-17.8c2.4-1.4 4.8-2 7.4-2 2.6 0 5.2 0.6 7.4 2l31 17.8c4.6 2.6 7.4 7.6 7.4 12.8v88.8c0 5.2 2.8 10.2 7.4 12.8l72.8 41.8c2.2 1.4 5.2 1.4 7.4 0 2.2-1.2 3.6-3.8 3.6-6.4l0.4-190zM945 174.6v352.8c0 5.2-2.8 10.2-7.4 12.8l-122.6 70.8c-4.6 2.6-10.2 2.6-14.8 0l-122.6-70.8c-4.6-2.6-7.4-7.6-7.4-12.8v-141.6c0-5.2 2.8-10.2 7.4-12.8l122.6-70.8c4.6-2.6 10.2-2.6 14.8 0l30.6 17.6c3.4 2 7.8-0.6 7.8-4.4v-188c0-5.6 6-9.2 11-6.4l73 40.8c4.6 2.4 7.6 7.4 7.6 12.8z m-92 257.8c0-1.4-0.8-2.6-1.8-3.2l-42-24.4c-1.2-0.6-2.6-0.6-3.8 0l-42 24.4c-1.2 0.6-1.8 1.8-1.8 3.2v48.6c0 1.4 0.8 2.6 1.8 3.2l42 24.2c1.2 0.6 2.6 0.6 3.6 0l42-24.2c1.2-0.6 1.8-1.8 1.8-3.2v-48.6z m419.6-1.4c4.6-2.6 7.4-7.6 7.4-12.8V384c0-5.2-2.8-10.2-7.4-12.8l-121.8-70.8c-4.6-2.6-10.2-2.6-14.8 0l-122.6 70.8c-4.6 2.6-7.4 7.6-7.4 12.8v141.6c0 5.4 2.8 10.2 7.4 12.8l121.8 69.4c4.4 2.6 10 2.6 14.6 0l73.6-41c5-2.8 5-10 0-12.8L1100 483.2c-2.4-1.4-3.8-3.8-3.8-6.4v-44.4c0-2.6 1.4-5 3.8-6.4l38.4-22.2c2.2-1.4 5.2-1.4 7.4 0l38.4 22.2c2.2 1.4 3.8 3.8 3.8 6.4v34.8c0 5.6 6.2 9.2 11.2 6.4l73.4-42.6zM1118 438c-0.8 0.6-1.4 1.4-1.4 2.4v27.2c0 1 0.6 2 1.4 2.4l23.6 13.6c0.8 0.6 2 0.6 2.8 0L1168 470c0.8-0.6 1.4-1.4 1.4-2.4v-27.2c0-1-0.6-2-1.4-2.4l-23.6-13.6c-0.8-0.6-2-0.6-2.8 0L1118 438z m-508.4 87v-140.8c0-5.2-3.2-10.2-7.8-12.8l-122.2-70.4c-4.2-2.4-10-2.8-14.8 0l-122.2 70.4c-4.6 2.6-7.8 7.4-7.8 12.8v140.8c0 5.6 3.8 10.4 8 12.8l122.4 70.4c4.8 2.8 10.4 2.6 14.8 0l122-70.4c3.6-2 6.2-5.4 7.2-9.4 0.2-1 0.4-2.2 0.4-3.4z m-148.6-249.8l-1.6 1h2.2l-0.6-1z m152.4 260.4l-0.8-1.4v1.8l0.8-0.4z" p-id="6576" fill="#ff6b6a"></path></svg>