<?xml version="1.0" standalone="no"?><!DOCTYPE svg PUBLIC "-//W3C//DTD SVG 1.1//EN" "http://www.w3.org/Graphics/SVG/1.1/DTD/svg11.dtd"><svg t="1642236206781" class="icon" viewBox="0 0 1024 1024" version="1.1" xmlns="http://www.w3.org/2000/svg" p-id="2851" xmlns:xlink="http://www.w3.org/1999/xlink" width="200" height="200"><defs><style type="text/css"></style></defs><path d="M509.184 513.1264m-450.816 0a450.816 450.816 0 1 0 901.632 0 450.816 450.816 0 1 0-901.632 0Z" fill="#E3FFF3" p-id="2852"></path><path d="M381.8496 365.056m-116.7872 0a116.7872 116.7872 0 1 0 233.5744 0 116.7872 116.7872 0 1 0-233.5744 0Z" fill="#3CD38E" p-id="2853"></path><path d="M532.864419 417.290804a116.7872 116.7872 0 1 0 208.915387-104.457461 116.7872 116.7872 0 1 0-208.915387 104.457461Z" fill="#1DCE75" p-id="2854"></path><path d="M637.952 507.5456c-51.3024 0-97.28 23.4496-127.744 60.16-30.464-36.7104-76.3904-60.16-127.744-60.16-91.4432 0-165.888 74.3936-165.888 165.888v96.512h78.848v-96.512c0-47.9744 39.0144-86.9888 86.9888-86.9888s86.9888 39.0144 86.9888 86.9888v96.512h81.408v-96.512c0-47.9744 39.0144-86.9888 86.9888-86.9888s86.9888 39.0144 86.9888 86.9888v96.512H803.84v-96.512c0-91.4432-74.3936-165.888-165.888-165.888z" fill="#05C46D" p-id="2855"></path><path d="M637.952 507.5456c-51.3024 0-97.28 23.4496-127.744 60.16-30.464-36.7104-76.3904-60.16-127.744-60.16-91.4432 0-165.888 74.3936-165.888 165.888v96.512h78.848v-96.512c0-47.9744 39.0144-86.9888 86.9888-86.9888 47.9744 0 86.9888 39.0144 86.9888 86.9888v96.512h7.9872c25.5488-8.1408 50.0736-18.4832 73.4208-30.8736v-65.6896c0-47.9744 39.0144-86.9888 86.9888-86.9888 24.2176 0 46.1824 9.984 61.952 26.0096 16.0768-21.1968 30.3104-43.8784 42.496-67.7376a164.54656 164.54656 0 0 0-104.2944-37.12z" fill="#1DCE75" p-id="2856"></path><path d="M637.3376 248.32c-64.4608 0-116.736 52.2752-116.736 116.7872 0 39.5264 19.6096 74.3936 49.664 95.5392 47.2576-59.4432 79.872-131.1232 92.2112-209.5616a116.736 116.736 0 0 0-25.1392-2.7648zM382.5152 507.5456c-76.8 0-141.568 52.48-160.3584 123.4432a454.5536 454.5536 0 0 0 91.2896-10.2912c15.9232-20.8384 40.9088-34.304 69.0688-34.304 8.1408 0 15.9744 1.2288 23.4496 3.328a450.31936 450.31936 0 0 0 78.8992-46.7456 165.09952 165.09952 0 0 0-102.3488-35.4304z" fill="#3CD38E" p-id="2857"></path><path d="M468.0704 286.3104c-21.3504-23.3472-52.0704-37.9904-86.1696-37.9904-64.4608 0-116.7872 52.2752-116.7872 116.7872 0 25.2416 8.0384 48.64 21.7088 67.7376 72.4992-32.3072 134.912-83.1488 181.248-146.5344z" fill="#48E1AA" p-id="2858"></path></svg>