<?xml version="1.0" standalone="no"?><!DOCTYPE svg PUBLIC "-//W3C//DTD SVG 1.1//EN" "http://www.w3.org/Graphics/SVG/1.1/DTD/svg11.dtd"><svg t="1594100853954" class="icon" viewBox="0 0 1024 1024" version="1.1" xmlns="http://www.w3.org/2000/svg" p-id="3627" xmlns:xlink="http://www.w3.org/1999/xlink" width="200" height="200"><defs><style type="text/css"></style></defs><path d="M554.751147 597.034667H338.431147L269.481813 256.469333H758.271147l-53.162667 163.669334c-0.170667 0.64-0.085333 1.28-0.213333 1.962666a18.517333 18.517333 0 0 0-0.426667 4.309334 20.906667 20.906667 0 0 0 0.213333 4.010666 23.637333 23.637333 0 0 0 3.072 7.722667c0.426667 0.554667 0.469333 1.28 0.896 1.749333l85.333334 108.458667a21.418667 21.418667 0 0 0 29.994666 3.541333 21.376 21.376 0 0 0 3.541334-29.952l-78.293334-99.498666 58.709334-180.736c0.341333-1.109333 0.170667-2.133333 0.341333-3.285334 0.213333-1.109333 0.682667-2.133333 0.682667-3.285333 0-0.341333-0.170667-0.597333-0.170667-0.938667-0.085333-1.493333-0.512-2.901333-0.853333-4.352-0.341333-1.237333-0.554667-2.56-1.109334-3.712-0.554667-1.194667-1.408-2.218667-2.218666-3.285333-0.810667-1.152-1.536-2.304-2.517334-3.242667-0.938667-0.853333-2.048-1.408-3.114666-2.133333-1.28-0.810667-2.517333-1.664-3.968-2.218667-0.298667-0.085333-0.512-0.341333-0.810667-0.426666-1.109333-0.384-2.218667-0.213333-3.370667-0.384-1.066667-0.170667-2.048-0.64-3.2-0.64H260.905813L255.657813 187.861333a21.290667 21.290667 0 1 0-41.813333 8.405334l129.749333 641.792a21.333333 21.333333 0 1 0 41.813334-8.405334l-38.4-189.866666h207.786666a21.333333 21.333333 0 0 0 0-42.666667" p-id="3628" fill="#42b983"></path><path d="M871.209813 619.690667a148.778667 148.778667 0 0 0-221.781333-28.757334v-2.688a20.181333 20.181333 0 0 0-40.362667 0V649.941333c0 4.010667 1.493333 7.552 3.541334 10.709334a19.456 19.456 0 0 0 8.789333 8.277333 20.096 20.096 0 0 0 26.624-10.112 108.970667 108.970667 0 0 1 189.781333-16.554667 108.928 108.928 0 0 1-90.282666 169.642667 108.629333 108.629333 0 0 1-107.178667-89.6 20.181333 20.181333 0 0 0-39.68 7.082667 148.906667 148.906667 0 0 0 146.858667 122.88 149.333333 149.333333 0 0 0 149.162666-149.205334c0-29.866667-8.832-58.752-25.472-83.328" p-id="3629" fill="#42b983"></path></svg>