<?xml version="1.0" standalone="no"?><!DOCTYPE svg PUBLIC "-//W3C//DTD SVG 1.1//EN" "http://www.w3.org/Graphics/SVG/1.1/DTD/svg11.dtd"><svg t="1594100686546" class="icon" viewBox="0 0 1024 1024" version="1.1" xmlns="http://www.w3.org/2000/svg" p-id="2134" xmlns:xlink="http://www.w3.org/1999/xlink" width="200" height="200"><defs><style type="text/css"></style></defs><path d="M190.464 208.896c39.936-16.384 71.168-6.144 95.744 21.504-10.752 140.288-34.816 268.8-73.216 385.024-41.472-9.216-83.456-18.944-124.928-28.16 15.36-138.24 50.176-264.192 102.4-378.368z m21.504 549.376l-19.968 62.976h771.584V406.016l-9.728-9.216-116.736-112.64-9.216-8.704H325.12c-2.048 21.504-4.096 41.984-6.656 62.976h465.92l-9.216 97.792-1.536 17.92 17.92-0.512 109.056-4.096v309.76c-161.792-1.024-350.208-1.024-688.64-1.024zM885.76 417.792l-77.312 3.072 6.656-71.168L885.76 417.792zM328.704 565.76H696.32v24.064H328.704v-24.064z m0-89.6h340.992v24.064H328.704V476.16z m0-91.136h340.992v24.064H328.704v-24.064z m-249.344 388.608l52.224 12.8-1.024 54.272-37.888 44.032c-8.192-2.048-16.384-3.584-25.088-5.632l-14.848-57.856 26.624-47.616z m7.68-160.768c-6.656 48.128-12.8 96.768-19.456 144.896 28.672 6.656 57.344 12.8 86.016 19.456 15.872-46.08 31.744-92.16 47.104-138.24L87.04 612.864z" fill="#d4237a" p-id="2135"></path></svg>