<?xml version="1.0" standalone="no"?><!DOCTYPE svg PUBLIC "-//W3C//DTD SVG 1.1//EN" "http://www.w3.org/Graphics/SVG/1.1/DTD/svg11.dtd"><svg t="1594100529435" class="icon" viewBox="0 0 1024 1024" version="1.1" xmlns="http://www.w3.org/2000/svg" p-id="1939" xmlns:xlink="http://www.w3.org/1999/xlink" width="200" height="200"><defs><style type="text/css"></style></defs><path d="M511.971431 85.320953a425.119134 425.119134 0 0 0-63.996429 5.336845c204.937135 31.038268 362.665476 207.851258 362.665476 421.370772S652.912137 902.235366 447.975002 933.273634a425.119134 425.119134 0 0 0 63.996429 5.336845c235.255443 0 426.650477-191.383606 426.650477-426.639049S747.238302 85.320953 511.971431 85.320953z" fill="#FBDCDA" p-id="1940"></path><path d="M511.971431 1024c-282.269963 0-511.97143-229.701468-511.97143-511.97143s229.701468-511.97143 511.97143-511.97143a511.97143 511.97143 0 0 1 155.042776 23.850097 42.660477 42.660477 0 0 1-25.747134 81.286893 427.736131 427.736131 0 0 0-129.295642-19.873177c-235.22116 0-426.627621 191.406462-426.627621 426.707617s191.406462 426.581909 426.627621 426.581909 426.661905-191.406462 426.661905-426.581909a427.941834 427.941834 0 0 0-5.58826-69.161855 42.683332 42.683332 0 1 1 84.246728-13.71352 518.82819 518.82819 0 0 1 6.651057 82.875375c0 282.269963-229.644328 511.97143-511.97143 511.97143z" fill="#EA3E31" p-id="1941"></path><path d="M511.971431 725.285241a86.440891 86.440891 0 0 1-61.710842-25.575716L324.244764 573.670844a87.355125 87.355125 0 0 1 0-123.421684l126.072964-126.015825a86.646593 86.646593 0 0 1 61.653703-25.587143 86.635165 86.635165 0 0 1 61.710842 25.587143l126.084392 126.084393a87.355125 87.355125 0 0 1 0 123.421684L573.682273 699.743809a86.600882 86.600882 0 0 1-61.710842 25.541432z m0-341.249529L384.572826 510.634362l126.084392 128.781385L639.438603 513.342782 513.365639 384.561397a1.828469 1.828469 0 0 0-1.394208-0.525685z" fill="#EA3E31" p-id="1942"></path><path d="M715.388651 189.475141l98.051671-82.281123a42.667333 42.667333 0 0 1 54.854082 65.367781l-98.051671 82.281123a42.667333 42.667333 0 0 1-54.854082-65.367781zM804.926511 293.103644l110.850957-63.996429a42.665048 42.665048 0 0 1 42.671905 73.893019l-110.850957 63.996429a42.661619 42.661619 0 1 1-42.660477-73.893019z" fill="#EA3E31" p-id="1943"></path></svg>