<?xml version="1.0" standalone="no"?><!DOCTYPE svg PUBLIC "-//W3C//DTD SVG 1.1//EN" "http://www.w3.org/Graphics/SVG/1.1/DTD/svg11.dtd"><svg t="1662642603037" class="icon" viewBox="0 0 1024 1024" version="1.1" xmlns="http://www.w3.org/2000/svg" p-id="2927" xmlns:xlink="http://www.w3.org/1999/xlink" width="128" height="128"><path d="M328.2 97.4h415.7c43.6 0 71.1 47 49.8 85L691.4 372.8c-11.5 21.4 4 47.3 28.3 47.3h96c33.4 0 48.8 41.6 23.4 63.3L338.8 912.9c-32.5 27.9-81.6-2.1-71.7-43.7L336 579.5c2.7-18.7-11.7-35.4-30.6-35.4h-53.9c-18 0-32.2-15.3-30.8-33.2l25.1-337c3.2-43.2 39.2-76.5 82.4-76.5z" fill="#FF556E" p-id="2928"></path><path d="M793.7 182.4c21.4-38-6.1-85-49.8-85h-98.5c55.3 18.4 105.3 48.2 147.5 86.5l0.8-1.5zM328.2 97.4c-43.3 0-79.2 33.4-82.4 76.5l-0.1 1.6c40.1-34.3 86.8-61.1 138-78.1h-55.5zM338.8 912.9l38.2-32.8c-35.9-12.7-69.6-30.2-100.2-51.7l-9.7 40.7c-2.8 11.8-0.9 22.7 4.1 31.5 12.3 8.2 25 15.9 38.1 23 10 0.4 20.4-2.9 29.5-10.7z" fill="#FF556E" p-id="2929"></path><path d="M496.4 113.6c107.2 0 203.3 47.2 268.7 122l27.8-51.7c-42.1-38.3-92.2-68.1-147.5-86.5H383.6c-51.2 17.1-97.9 43.8-138 78.1l-3.3 44.4c64.8-65.6 154.7-106.3 254.1-106.3zM443.2 823.3c-55.5-8.3-106.8-29.4-150.9-60.2l-15.6 65.4c30.6 21.5 64.2 39 100.2 51.7l66.3-56.9z" fill="#FF5F71" p-id="2930"></path><path d="M478.3 151c108 0 202.7 57.1 255.5 142.9l31.3-58.2c-65.4-74.8-161.5-122-268.7-122-99.4 0-189.3 40.7-254 106.3l-3.8 50.8C293.3 198 380.3 151 478.3 151zM761.4 550.1l77.7-66.7c25.4-21.7 10.1-63.3-23.4-63.3h-39.1c1 10.1 1.6 20.4 1.6 30.8 0 34.7-5.9 68.1-16.8 99.2zM533.6 745.7c-17.9 3.3-36.4 5.1-55.3 5.1-63.3 0-122-19.6-170.4-53.1l-15.6 65.4c44.1 30.8 95.4 51.9 150.9 60.2l90.4-77.6z" fill="#FF6974" p-id="2931"></path><path d="M220.7 510.9c-1.2 15.5 9.3 29.1 23.8 32.4-9.8-18.8-17.1-39-21.8-60.2l-2 27.8zM460.2 188.4c111.9 0 206.1 75.7 234.4 178.6l39.3-73.1C681 208.1 586.3 151 478.3 151c-98 0-185 47-239.7 119.7l-5.5 74.2c34.8-91.5 123.3-156.5 227.1-156.5zM533.6 745.7l227.8-195.6c10.9-31.1 16.8-64.4 16.8-99.2 0-10.4-0.5-20.7-1.6-30.8h-56.9c-6.4 0-12.2-1.8-17.1-4.9 0.4 5.3 0.5 10.7 0.5 16.1 0 134.2-108.8 243-243 243-50.7 0-97.8-15.5-136.7-42.1l-15.6 65.4c48.4 33.5 107.1 53.1 170.4 53.1 19 0.1 37.5-1.7 55.4-5z" fill="#FF7377" p-id="2932"></path><path d="M703.2 431.4c0-5.4-0.2-10.8-0.5-16.1-13.5-8.5-19.7-26.7-11.2-42.4l3.1-5.8C666.3 264 572.1 188.4 460.2 188.4c-103.7 0-192.3 65-227.1 156.5l-10.3 138.3c4.6 21.2 12 41.4 21.8 60.2 2.2 0.5 4.6 0.8 7 0.8h53.9c2.3 0 4.4 0.2 6.6 0.7-34.5-33.8-56-80.9-56-133 0-102.8 83.3-186.1 186.1-186.1s186 83.2 186 186-83.3 186.1-186.1 186.1c-40.3 0-77.6-12.8-108.1-34.6 2 4.9 2.8 10.5 2 16.2l-12.5 52.7c39 26.6 86 42.1 136.7 42.1 134.2 0 243-108.7 243-242.9z" fill="#FF7E7A" p-id="2933"></path><path d="M628.2 411.8c0-102.8-83.3-186.1-186.1-186.1S256 309 256 411.8c0 52.1 21.4 99.2 56 133 10.1 2.2 18.3 9.3 22.1 18.5 30.5 21.8 67.8 34.6 108.1 34.6 102.6 0 186-83.3 186-186.1z m-333.5-19.5c0-71.4 57.8-129.2 129.2-129.2s129.2 57.8 129.2 129.2-57.8 129.2-129.2 129.2-129.2-57.8-129.2-129.2z" fill="#FF887D" p-id="2934"></path><path d="M423.9 392.3m-129.2 0a129.2 129.2 0 1 0 258.4 0 129.2 129.2 0 1 0-258.4 0Z" fill="#FF9280" p-id="2935"></path><path d="M310.1 932.8c-9.5 0-19.1-2.6-27.8-8-20-12.2-29.5-34.9-24-57.7l68.8-289.3c0.8-6.2-1.1-12.4-5.2-17.1-4.2-4.8-10.2-7.6-16.6-7.6h-53.9c-11.1 0-21.7-4.7-29.3-12.8s-11.4-19.1-10.6-30.1l25.1-337c1.7-23.1 12-44.6 29-60.4s39.2-24.5 62.4-24.5h415.7c23.7 0 45 12.2 57 32.7 12 20.4 12.2 45 0.6 65.6L699.3 377c-3.9 7.2-3.7 15.8 0.5 22.8 4.2 7.1 11.6 11.3 19.8 11.3h96c19 0 35.6 11.5 42.2 29.4 6.6 17.9 1.5 37.4-13 49.7L344.6 919.8c-10 8.6-22.2 13-34.5 13z m18.1-826.4c-18.6 0-36.4 7-50.1 19.7s-22 29.9-23.3 48.5l-25.1 337c-0.5 6.2 1.6 12 5.8 16.5s9.9 7 16.1 7h53.9c11.6 0 22.6 5 30.2 13.8s11 20.4 9.3 31.9l-0.2 0.8-68.9 289.7c-4.4 18.3 5.4 31.7 15.9 38.1s26.9 8.9 41.2-3.3l500.3-429.5c10.6-9 10.9-21.3 7.8-29.8-3.1-8.5-11.4-17.6-25.3-17.6h-96c-14.6 0-27.8-7.5-35.3-20s-7.8-27.7-0.9-40.6L785.9 178c8.4-15 8.3-32.9-0.4-47.8s-24.2-23.8-41.5-23.8H328.2z" fill="#EF4868" p-id="2936"></path><path d="M632 363l-38.2 73.7c-3.5 6.8 1.4 15 9.1 15h62.6c12.3 0 18.4 14.9 9.6 23.5L534.5 613.9c-5.1 5-13.5-0.4-11-7.1l27.4-73.5c2.4-6.4-2.4-13.3-9.2-13.3h-51c-14.3 0-25.1-13-22.5-27.1L493 360.2c3.1-16.5 17.6-28.5 34.4-28.4l85.9 0.3c15.8 0 26 16.8 18.7 30.9z" fill="#FFC7C7" p-id="2937"></path><path d="M301.5 322.9c-9.9-0.7-17.4-9.2-16.8-19.2l8.2-123.8c0.7-9.9 9.2-17.4 19.2-16.8s17.4 9.2 16.8 19.2l-8.2 123.8c-0.7 10-9.3 17.5-19.2 16.8zM296.9 392.4c-9.9-0.7-17.4-9.2-16.8-19.2l0.7-10.5c0.7-9.9 9.2-17.4 19.2-16.8 9.9 0.7 17.4 9.2 16.8 19.2l-0.7 10.5c-0.7 9.9-9.3 17.4-19.2 16.8z" fill="#FFFFFF" p-id="2938"></path></svg>