<svg id="图层_1" xmlns="http://www.w3.org/2000/svg" viewBox="0 0 176 33"><style>.st0{fill:#009a61}</style><path d="M6.3 25.5c-2.3 0-4.1-.6-5.9-1.9v-.3l1.3-2.7c.9.8 2.4 1.7 3.8 1.7 1.1 0 2.2-.4 2.2-1.7 0-1.1-1-1.5-2.2-2-.4-.2-.9-.4-1.4-.6-2-1-3.4-2.2-3.4-4.7 0-4.5 4.3-5 6.2-5 2 0 4 .5 5.3 1.3v.4l-1.3 2.7c-1-.7-2.2-1.1-3.4-1.1-1.6 0-1.9.8-1.9 1.5 0 1.1 1 1.5 2.4 2 .3.1.6.2.9.4 2.4 1 3.8 2.1 3.8 4.8-.1 4.5-4 5.2-6.4 5.2zm15.3 0c-6.7 0-7.7-5.4-7.7-8.6 0-3.8 1.3-8.4 7.4-8.4 5.8 0 7 4.2 7 7.9 0 .5-.1 1.4-.3 2-.8 0-3.7 0-6-.1h-3.2v.2c0 .9.3 3.9 3.4 3.9 1.2 0 2.3-.5 3.3-1.6l1.9 2.3v.3c-1.8 1.3-3.6 2.1-5.8 2.1zm-.3-13.7c-1.6 0-2.4 1.3-2.5 3.9v.2h4.8v-.2c.1-2.6-.7-3.9-2.3-3.9zm16.1 20.7c-2.2 0-4.4-.6-6.2-1.6l1.2-3.1h.2c1 .6 2.4 1.4 4.1 1.4 1.9 0 3-1 3-2.7 0-.2.1-1.7.2-2.7v-.1l-.4-.2-.1.1c-1.1 1-2.2 1.9-4.1 1.9-3.6 0-5.4-2.7-5.4-8.5 0-4.1 1.4-8.4 5.4-8.4 1.5 0 3 .7 4.2 2l.1.1.3-.1.3-1.3.3-.3 4.1.1c0 .6-.1 2.1-.1 2.9v14c.1 6-5.4 6.5-7.1 6.5zm0-20.4c-2.4 0-2.4 3.6-2.4 4.8 0 1.6 0 5.2 2 5.2.8 0 1.8-.6 2.5-1.6v-.1l.1-7.2v-.1c-.6-.5-1.4-1-2.2-1zM64.6 25c0-.7.2-10.2.2-10.3 0-1.6-.2-2.6-1.5-2.6-.7 0-1.6.4-2.3 1l-.1-.1v11.9H56c0-.7.1-10.2.1-10.3 0-1.6-.2-2.6-1.5-2.6-.6 0-1.6.4-2.3 1l-.1.1.1 11.9h-5V13c0-1.1-.1-3.2-.1-4.1l4.3-.1.3.2.2 1.4.3.1.1-.1c1.4-1.2 3.4-2 4.9-2 1.4 0 2.5.7 3.1 2.1l.1.3.2-.2c1.5-1.3 3.5-2.1 5.2-2.1 2.4 0 3.8 1.7 3.8 4.8 0 .2-.1 11-.1 11.7h-5zm15 .5c-6.7 0-7.7-5.4-7.7-8.6 0-3.8 1.3-8.4 7.4-8.4 5.8 0 7 4.2 7 7.9 0 .5-.1 1.4-.3 2-.8 0-3.7 0-6-.1h-3.2v.2c0 .9.3 3.9 3.4 3.9 1.2 0 2.3-.5 3.3-1.6l1.9 2.3v.3c-1.8 1.3-3.6 2.1-5.8 2.1zm-.3-13.7c-1.6 0-2.4 1.3-2.5 3.9v.2h4.8v-.2c0-2.6-.7-3.9-2.3-3.9zM97.2 25c0-.7.2-10.2.2-10.3 0-1.7-.3-2.6-1.6-2.6-.7 0-1.6.4-2.5 1l-.1.1.1 11.9h-5V13c0-1.1-.1-3.1-.1-4.1l4.3-.1.3.2.2 1.4.3.1.1-.1c1.5-1.2 3.6-2 5.2-2 2.5 0 3.8 1.7 3.8 4.8 0 .2-.1 11-.1 11.7h-5.1v.1zm13.1 0c-4.1 0-4.5-2.5-4.5-5 0-.7 0-4.3.1-7.4v-.2h-1.8l.1-3.5h1.8V4.3l.2-.2h4.7c0 .6 0 2.4-.1 4.6v.2h2.7l-.1 3.5h-2.7v.2c.1 3 .1 6.2.1 6.8 0 1.7 0 2.3 1.6 2.3h.9v3.1l-.2.2h-2.8z"/><path class="st0" d="M117.2 25c0-1.4 0-9.4.1-12.4v-.2h-1.9l.1-3.5h1.8v-.2c0-.1-.1-2.8-.1-2.8 0-4.4 2.8-5.4 5.1-5.4 1.4 0 2.6.2 3.7.7v.4l-1 2.8c-.5-.3-1-.4-1.4-.4-1.1 0-1.5.8-1.5 2.5v2.4h2.9l-.1 3.5h-2.8v.2c.1 2.9.1 11 .1 12.4h-5zm12.8.4c-3.5 0-3.9-3.4-3.9-4.8 0-5.2 4.1-5.5 8.5-5.8h.2l.1-.2v-.9c0-1.2-.7-1.9-2.2-1.9-1.9 0-3.6.5-4.8 1l-1.1-2.9v-.2c2.4-.9 4.9-1.3 7.5-1.3 3.7 0 5.6 1.7 5.6 5v7.9c0 1.3.1 2.9.1 3.7h-4.1l-.3-.3-.4-1.3-.3-.1-.1.1c-1.4 1.4-2.9 2-4.8 2zm4.5-8.2c-2.5.1-3.7.1-3.7 2.7 0 2 .8 2.4 1.5 2.4.8 0 1.8-.5 2.5-1.2l.1-.1v-3.5l-.1-.1-.2-.1c0-.1-.1-.1-.1-.1zm12 8.2c-2.7 0-4-1.6-4-4.8 0-.2.1-11 .1-11.8h4.8l.2.2c0 .5-.1 10.1-.1 10.3 0 1.7.6 2.6 1.6 2.6.9 0 2-.5 2.7-1.2l.1-.1-.1-11.9h4.8l.2.2V21c0 1.3.1 2.9.1 3.7h-4.1l-.3-.3-.4-1.4-.4-.1-.1.1c-1.4 1.7-3 2.4-5.1 2.4zm13.2-.4c-.1-.8-.1-2.6-.1-3.7V4.9c0-1.1 0-2.8-.1-3.7l4.9-.1.2.2v20c0 1.2.1 2.9.1 3.7h-5zm12.9 0c-4.1 0-4.5-2.5-4.5-5 0-.7 0-4.3.1-7.4v-.2h-1.8l.1-3.5h1.8V4.3l.2-.2h4.7c0 .6 0 2.4-.1 4.6v.2h2.7l-.1 3.5H173v.2c.1 3 .1 6.2.1 6.8 0 1.7 0 2.3 1.6 2.3h.9v3.1l-.2.2h-2.8z"/></svg>