<?xml version="1.0" standalone="no"?><!DOCTYPE svg PUBLIC "-//W3C//DTD SVG 1.1//EN" "http://www.w3.org/Graphics/SVG/1.1/DTD/svg11.dtd"><svg t="1661944123339" class="icon" viewBox="0 0 1024 1024" version="1.1" xmlns="http://www.w3.org/2000/svg" p-id="2531" width="128" height="128" xmlns:xlink="http://www.w3.org/1999/xlink"><path d="M643.364273 691.560814c0 72.566972-57.88112 131.391219-129.343284 131.391219-71.408271 0-129.343284-58.824248-129.343284-131.391219 0-72.540025 57.935013-131.364273 129.343284-131.364273 71.462164 0 129.343284 58.824248 129.343284 131.364273" fill="#F9D11F" p-id="2532"></path><path d="M578.719577 846.664968c0 36.296959-28.967506 65.69561-64.671642 65.69561-35.731082 0-64.671642-29.398651-64.671642-65.69561 0-36.270013 28.94056-65.69561 64.671642-65.695609 35.704136 0 64.671642 29.425597 64.671642 65.695609M546.35681 976.196878a32.605286 32.605286 0 0 1-32.335821 32.874751 32.605286 32.605286 0 0 1-32.335821-32.874751 32.605286 32.605286 0 0 1 32.335821-32.847805c17.865541 0 32.335821 14.712799 32.335821 32.874752" fill="#F9D11F" p-id="2533"></path><path d="M245.768407 614.924918H62.90934c-31.95857 0-47.964801-39.261076-25.356673-62.219509l208.21574-211.476269v273.695778zM773.92015 614.924918h182.859067c31.95857 0 47.964801-39.261076 25.329727-62.219509l-208.188794-211.476269v273.695778z" fill="#31EC7C" p-id="2534"></path><path d="M777.47709 615.787207v-258.956033c0-74.291549-29.048346-145.511194-80.731766-198.003011l-134.732588-136.861362a73.025062 73.025062 0 0 0-104.363862 0l-134.732587 136.888309a282.237824 282.237824 0 0 0-80.731767 197.949117v258.98298c0 41.847942 33.413682 75.773607 74.587961 75.773607h386.143595c41.174279 0 74.561014-33.925666 74.561014-75.773607" fill="#A267F8" p-id="2535"></path><path d="M514.047935 560.196541c-71.435218 0-129.343284 58.824248-129.343284 131.364273h258.686568c0-72.540025-57.935013-131.364273-129.343284-131.364273" fill="#7E42B9" p-id="2536"></path><path d="M590.683831 346.699283c0 45.350989-36.189173 82.106039-80.839552 82.106039s-80.839552-36.75505-80.839553-82.106039 36.189173-82.106039 80.839553-82.106039 80.839552 36.75505 80.839552 82.106039" fill="#FFFFFF" p-id="2537"></path></svg>