<svg t="1594096267672" class="icon" viewBox="0 0 1024 1024" version="1.1" xmlns="http://www.w3.org/2000/svg" p-id="7569" width="200" height="200"><path d="M512 1024C230.4 1024 0 793.6 0 512S230.4 0 512 0s512 230.4 512 512-230.4 512-512 512z" fill="#9478B5" p-id="7570"></path><path d="M1024 512c0-35.208-3.6-69.616-10.456-102.88L640.76 225.952l-110.056-0.992-3.944 149.024-107.44-121.664-45.456 98.352-1.032 431.928 198.624 237.816C825.296 990.696 1024 773.488 1024 512z" fill="#5C4987" p-id="7571"></path><path d="M461.328 728.52H376.36v22.752h85.056v-22.776l-0.088 0.024" fill="#AEABAA" p-id="7572"></path><path d="M377.44 757.768v5.384c0 20.672 16.912 37.584 37.584 37.584h9.888c20.672 0 37.584-16.912 37.584-37.584v-5.384H377.44z" fill="#F18E9C" p-id="7573"></path><path d="M464.576 724.184l0.088 0.016V354.32h-85.056v369.864z" fill="#DD9D00" p-id="7574"></path><path d="M524.656 803.992h116.728V227.656h-116.728v576.336z m34.608-19.736c-7.008 0-12.688-5.68-12.688-12.688s5.68-12.68 12.688-12.68a12.686 12.686 0 1 1 0 25.368" fill="#F7BE15" p-id="7575"></path><path d="M641.376 810.128h-116.728l-6.136-6.144V227.656l6.136-6.144h116.728l6.144 6.144v576.328l-6.144 6.144z m-110.584-12.288h104.448V233.8h-104.448v564.04z m28.472-7.44c-10.376 0-18.824-8.448-18.824-18.832 0-10.392 8.44-18.832 18.824-18.832 10.376 0 18.824 8.448 18.824 18.832s-8.448 18.832-18.824 18.832m0-25.376a6.552 6.552 0 0 0-6.544 6.544c0 3.6 2.936 6.536 6.544 6.536a6.55 6.55 0 0 0 6.544-6.536c0-3.6-2.936-6.544-6.544-6.544M424.912 810.128h-9.888c-24.112 0-43.728-19.616-43.728-43.728V351.072l6.144-6.144h85.056l6.136 6.144V766.4c0 24.112-19.608 43.728-43.72 43.728m-41.336-452.912V766.4c0 17.336 14.112 31.44 31.448 31.44h9.888c17.336 0 31.448-14.104 31.448-31.44V357.216h-72.784z" fill="#474341" p-id="7576"></path><path d="M419.968 257.104l-42.528 93.968h85.056z" fill="#F3D8C2" p-id="7577"></path><path d="M462.496 357.216H377.44l-5.592-8.68 42.528-93.968h11.192l42.528 93.968-5.6 8.68z m-75.536-12.288h66.016L419.968 272l-33.008 72.928z" fill="#474341" p-id="7578"></path><path d="M435.504 295.72H404.44a4.306 4.306 0 0 1 0-8.608h31.064a4.306 4.306 0 0 1 0 8.608M463.72 757.544h-86.28a4.306 4.306 0 0 1 0-8.608h86.28a4.306 4.306 0 0 1 0 8.608M463.72 729.352h-86.28a4.306 4.306 0 0 1 0-8.608h86.28a4.306 4.306 0 0 1 0 8.608" fill="#474341" p-id="7579"></path><path d="M404.44 691.768a4.3 4.3 0 0 1-4.304-4.304V530.2a4.3 4.3 0 0 1 4.304-4.304 4.3 4.3 0 0 1 4.304 4.304v157.264a4.306 4.306 0 0 1-4.304 4.304M404.44 513.536a4.3 4.3 0 0 1-4.304-4.304V441.08a4.306 4.306 0 0 1 8.608 0v68.152a4.306 4.306 0 0 1-4.304 4.304M404.44 430.312a4.3 4.3 0 0 1-4.304-4.304v-56.784a4.3 4.3 0 0 1 4.304-4.296 4.3 4.3 0 0 1 4.304 4.296v56.784a4.306 4.306 0 0 1-4.304 4.304M435.504 693.016a4.3 4.3 0 0 1-4.304-4.304v-33.12c0-2.376 1.928-4.296 4.304-4.296s4.304 1.92 4.304 4.296v33.12a4.306 4.306 0 0 1-4.304 4.304M435.496 637.744c-2.296 0-4.2-1.808-4.288-4.128-0.792-19.88-1.432-39.76-1.872-59.64a4.304 4.304 0 0 1 4.2-4.392c2.584 0.16 4.344 1.84 4.4 4.208 0.44 19.832 1.064 39.664 1.864 59.488a4.31 4.31 0 0 1-4.12 4.472h-0.184v-0.008zM433.248 558.544a4.312 4.312 0 0 1-4.304-4.232c-0.96-58.808-0.2-121.136 2.256-185.24 0.088-2.368 2.088-4.192 4.464-4.136a4.296 4.296 0 0 1 4.128 4.464c-2.456 63.952-3.208 126.12-2.248 184.776a4.302 4.302 0 0 1-4.224 4.368h-0.072z" fill="#B77917" p-id="7580"></path><path d="M641.848 261.4H599.36a4.306 4.306 0 0 1 0-8.608h42.488a4.306 4.306 0 0 1 0 8.608M641.848 280.824H620.6a4.306 4.306 0 0 1 0-8.608h21.248a4.306 4.306 0 0 1 0 8.608M641.848 300.24H620.6a4.306 4.306 0 0 1 0-8.608h21.248a4.306 4.306 0 0 1 0 8.608M641.848 319.664H620.6a4.306 4.306 0 0 1 0-8.608h21.248a4.306 4.306 0 0 1 0 8.608M641.848 339.08H620.6a4.306 4.306 0 0 1 0-8.608h21.248a4.306 4.306 0 0 1 0 8.608M641.848 370.4H599.36a4.306 4.306 0 0 1 0-8.608h42.488a4.306 4.306 0 0 1 0 8.608M641.848 389.824H620.6a4.306 4.306 0 0 1 0-8.608h21.248a4.306 4.306 0 0 1 0 8.608M641.848 409.24H620.6a4.306 4.306 0 0 1 0-8.608h21.248a4.306 4.306 0 0 1 0 8.608M641.848 428.664H620.6a4.306 4.306 0 0 1 0-8.608h21.248a4.306 4.306 0 0 1 0 8.608M641.848 448.08H620.6a4.306 4.306 0 0 1 0-8.608h21.248a4.306 4.306 0 0 1 0 8.608M641.848 479.4H599.36a4.306 4.306 0 0 1 0-8.608h42.488a4.306 4.306 0 0 1 0 8.608M641.848 498.824H620.6a4.306 4.306 0 0 1 0-8.608h21.248a4.306 4.306 0 0 1 0 8.608M641.848 518.24H620.6a4.306 4.306 0 0 1 0-8.608h21.248a4.306 4.306 0 0 1 0 8.608M641.848 537.664H620.6a4.306 4.306 0 0 1 0-8.608h21.248a4.306 4.306 0 0 1 0 8.608M641.848 557.088H620.6a4.306 4.306 0 0 1 0-8.608h21.248a4.306 4.306 0 0 1 0 8.608M641.848 588.4H599.36a4.306 4.306 0 0 1 0-8.608h42.488a4.306 4.306 0 0 1 0 8.608M641.848 607.824H620.6a4.306 4.306 0 0 1 0-8.608h21.248a4.306 4.306 0 0 1 0 8.608M641.848 627.24H620.6a4.306 4.306 0 0 1 0-8.608h21.248a4.306 4.306 0 0 1 0 8.608M641.848 646.664H620.6a4.306 4.306 0 0 1 0-8.608h21.248a4.306 4.306 0 0 1 0 8.608M641.848 666.088H620.6a4.306 4.306 0 0 1 0-8.608h21.248a4.306 4.306 0 0 1 0 8.608M641.848 697.408H599.36a4.306 4.306 0 0 1 0-8.608h42.488a4.306 4.306 0 0 1 0 8.608M641.848 716.824H620.6a4.306 4.306 0 0 1 0-8.608h21.248a4.306 4.306 0 0 1 0 8.608M641.848 736.24H620.6a4.306 4.306 0 0 1 0-8.608h21.248a4.306 4.306 0 0 1 0 8.608M641.848 755.664H620.6a4.306 4.306 0 0 1 0-8.608h21.248a4.306 4.306 0 0 1 0 8.608M641.848 775.088H620.6a4.306 4.306 0 0 1 0-8.608h21.248a4.306 4.306 0 0 1 0 8.608" fill="#474341" p-id="7581"></path></svg>