<?xml version="1.0" standalone="no"?><!DOCTYPE svg PUBLIC "-//W3C//DTD SVG 1.1//EN" "http://www.w3.org/Graphics/SVG/1.1/DTD/svg11.dtd"><svg t="1600232376413" class="icon" viewBox="0 0 1024 1024" version="1.1" xmlns="http://www.w3.org/2000/svg" p-id="4381" xmlns:xlink="http://www.w3.org/1999/xlink" width="100" height="100"><defs><style type="text/css"></style></defs><path d="M712.388923 10.24A268.918154 268.918154 0 0 0 442.683077 279.788308v408.49723c0 74.830769-61.44 136.270769-136.192 136.27077-74.830769 0-138.870154-61.44-138.870154-138.948923 0-77.430154 61.44-136.113231 136.270769-136.113231a66.166154 66.166154 0 0 0 66.717539-66.796308 66.166154 66.166154 0 0 0-66.796308-66.717538A268.366769 268.366769 0 0 0 44.898462 675.052308C39.384615 824.556308 154.308923 949.956923 303.812923 955.470769a268.918154 268.918154 0 0 0 269.705846-269.784615V277.267692c0-74.830769 61.44-136.192 136.192-136.192 74.752 0 136.113231 61.44 136.113231 136.192 0 74.830769-61.44 136.192-133.435077 136.192H709.710769a66.166154 66.166154 0 0 0-66.796307 66.717539 66.166154 66.166154 0 0 0 66.796307 66.796307 268.918154 268.918154 0 0 0 269.627077-269.705846 264.428308 264.428308 0 0 0-267.027692-267.027692z" p-id="4382" fill="#d4237a"></path></svg>