<svg t="1596368062221" class="icon" viewBox="0 0 1024 1024" version="1.1" xmlns="http://www.w3.org/2000/svg" p-id="1712" width="100" height="100"><path d="M0 0v1024h1024V0z m158.848 132.736h213.333333v78.250667h-59.306666v267.818666h59.306666v78.250667h-213.333333v-78.250667h61.610667V210.986667H158.848z m471.68 0H725.333333v277.333333c0 26.112-2.346667 47.402667-9.472 66.389334-7.125333 18.944-16.64 33.152-30.848 47.36-11.818667 11.904-28.416 23.765333-47.36 28.501333a167.808 167.808 0 0 1-61.653333 11.861333c-33.194667 0-61.610667-7.125333-82.944-18.986666a205.226667 205.226667 0 0 1-54.570667-45.056l59.306667-66.346667a136.533333 136.533333 0 0 0 35.541333 30.805333c11.818667 7.125333 26.069333 11.861333 40.32 11.861334 16.597333 0 30.762667-4.736 42.666667-16.597334 9.429333-11.861333 14.208-28.458667 14.208-54.528zM94.805333 832h384V896h-384z" p-id="1713"></path></svg>