<?xml version="1.0" standalone="no"?><!DOCTYPE svg PUBLIC "-//W3C//DTD SVG 1.1//EN" "http://www.w3.org/Graphics/SVG/1.1/DTD/svg11.dtd"><svg t="1596366375707" class="icon" viewBox="0 0 1024 1024" version="1.1" xmlns="http://www.w3.org/2000/svg" p-id="1652" xmlns:xlink="http://www.w3.org/1999/xlink" width="100" height="100"><defs><style type="text/css"></style></defs><path d="M905.819434 514.978579a30.687229 30.687229 0 0 0-19.60573-27.703748L571.669611 387.541338l314.117882-99.733493a31.11344 31.11344 0 0 0 20.031941-28.129959V17.163537a14.917403 14.917403 0 0 0-20.031941-16.196037L138.212507 238.793522a28.982383 28.982383 0 0 0-20.031941 27.277536v242.94056a27.703748 27.703748 0 0 0 19.60573 26.425114l317.953785 101.012127-317.953785 100.585916a31.11344 31.11344 0 0 0-19.60573 28.129959v242.514349a14.491191 14.491191 0 0 0 19.60573 15.343614l748.427408-237.39981a27.703748 27.703748 0 0 0 19.60573-26.425114z" p-id="1653" fill="#13227a"></path></svg>