<?xml version="1.0" standalone="no"?><!DOCTYPE svg PUBLIC "-//W3C//DTD SVG 1.1//EN" "http://www.w3.org/Graphics/SVG/1.1/DTD/svg11.dtd"><svg t="1594100477949" class="icon" viewBox="0 0 1024 1024" version="1.1" xmlns="http://www.w3.org/2000/svg" p-id="1232" xmlns:xlink="http://www.w3.org/1999/xlink" width="200" height="200"><defs><style type="text/css"></style></defs><path d="M806.5856 838.4H211.0208A140.672 140.672 0 0 1 70.4 698.0224V217.184A140.672 140.672 0 0 1 211.0208 76.8h595.5648A140.672 140.672 0 0 1 947.2 217.184v480.8384A140.672 140.672 0 0 1 806.5856 838.4zM211.0208 140.5824a76.7552 76.7552 0 0 0-76.7296 76.608v480.8384a76.7552 76.7552 0 0 0 76.7296 76.608h595.5648a76.7552 76.7552 0 0 0 76.7296-76.608V217.184a76.7552 76.7552 0 0 0-76.7296-76.608H211.0208z" fill="#FB3F50" p-id="1233"></path><path d="M812.8 960H385.6a31.9296 31.9296 0 1 1 0-63.8528H812.8a31.9296 31.9296 0 1 1 0 63.8528z m-548.7936 0H211.2a31.9296 31.9296 0 1 1 0-63.8528h52.8064a31.9296 31.9296 0 1 1 0 63.8528z m177.0752-301.344A68.2432 68.2432 0 0 1 372.8 590.5344V346.7648a68.288 68.288 0 0 1 104.4032-57.8176l193.3824 120.256a68.0448 68.0448 0 0 1 0.6976 115.2l-193.3824 123.52a68.3456 68.3456 0 0 1-36.8192 10.7456z m0.0576-316.256a4.3648 4.3648 0 0 0-2.1312 0.5952 3.9168 3.9168 0 0 0-2.208 3.7376v243.776a4.2816 4.2816 0 0 0 6.5856 3.5968L636.8 470.6176a4.2752 4.2752 0 0 0-0.0448-7.2256l-193.408-120.256a4.0896 4.0896 0 0 0-2.208-0.736z" fill="#FFCA1E" p-id="1234"></path></svg>