<?xml version="1.0" standalone="no"?><!DOCTYPE svg PUBLIC "-//W3C//DTD SVG 1.1//EN" "http://www.w3.org/Graphics/SVG/1.1/DTD/svg11.dtd"><svg t="1649507197820" class="icon" viewBox="0 0 1024 1024" version="1.1" xmlns="http://www.w3.org/2000/svg" p-id="1457" xmlns:xlink="http://www.w3.org/1999/xlink" width="80" height="80"><defs><style type="text/css">@font-face { font-family: feedback-iconfont; src: url("//at.alicdn.com/t/font_1031158_u69w8yhxdu.woff2?t=1630033759944") format("woff2"), url("//at.alicdn.com/t/font_1031158_u69w8yhxdu.woff?t=1630033759944") format("woff"), url("//at.alicdn.com/t/font_1031158_u69w8yhxdu.ttf?t=1630033759944") format("truetype"); }
</style></defs><path d="M420.5 419.5c121.2 121.2 102.8 336 102.8 336s-214.8 18.4-336-102.8-102.8-336-102.8-336 214.8-18.3 336 102.8z" fill="#FF9999" p-id="1458"></path><path d="M624.4 419.5c-121.2 121.2-102.8 336-102.8 336s214.8 18.4 336-102.8 102.8-336 102.8-336-214.8-18.3-336 102.8z" fill="#FF5555" p-id="1459"></path><path d="M687.3 440.7c0 171.5-164.9 310.5-164.9 310.5s-164.9-139-164.9-310.5 164.9-310.5 164.9-310.5 164.9 139 164.9 310.5z" fill="#FF9999" p-id="1460"></path><path d="M440.6 765.7c-9-24.5 25.3-47.7 88.4-48.2s96.6 21.4 96.6 44.5-82 117.8-135.1 137.4C437.4 919 414.3 919 388.9 919s-27.7-45 19.6-62.3c47.4-17.4 41.1-66.5 32.1-91z" fill="#2C4432" p-id="1461"></path><path d="M396 464c-5 0-9.3-3.7-9.9-8.8-0.2-1.8-4.9-45.2 23.5-128.4 28.9-84.6 71.8-109.5 73.6-110.5 4.8-2.7 10.9-1 13.6 3.8 2.7 4.8 1 10.9-3.8 13.6-0.7 0.4-38.4 23.2-64.5 99.5-27 78.9-22.6 119.2-22.5 119.6 0.7 5.5-3.3 10.5-8.7 11.1-0.5 0.1-0.9 0.1-1.3 0.1z" fill="#FFFFFF" p-id="1462"></path><path d="M343 352.8c-1.8 0-3.7-0.5-5.4-1.6-61.4-39-131.9-53.8-180.1-59.4-38.1-4.4-68.8-3.9-83-3.2-0.4 8.3-0.7 22.1-0.2 39.6 0.2 5.5-4.2 10.1-9.7 10.3-5.5 0.2-10.1-4.2-10.3-9.7-0.9-30.3 0.7-49.6 0.7-50.4 0.4-4.8 4.2-8.7 9.1-9.1 1.6-0.1 40.6-3.5 95.2 2.7 50.5 5.8 124.3 21.3 189.1 62.4 4.7 3 6 9.1 3.1 13.8-2 3-5.2 4.6-8.5 4.6zM412.5 725.5c-0.4 0-0.7 0-1.1-0.1-45.6-4.9-88-14.3-126.1-27.9-50.8-18.1-92.7-43.5-124.6-75.3-27.6-27.6-50.4-62.2-67.6-102.8-13.8-32.6-24.2-69.1-30.8-108.6-0.9-5.4 2.8-10.6 8.2-11.5 5.4-0.9 10.6 2.8 11.5 8.2 6.3 37.9 16.2 73 29.4 104.1 16.2 38.2 37.5 70.6 63.4 96.5 29.7 29.7 69.1 53.5 117.1 70.6 36.6 13.1 77.5 22.1 121.6 26.8 5.5 0.6 9.5 5.5 8.9 11-0.5 5.2-4.8 9-9.9 9zM599.6 727.4l-1.4-19.9c96.8-7 173-39.5 232.8-99.3 26.7-26.6 48.5-60.3 64.9-100.1 13.2-32.1 23-68.2 29-107.3 7.9-51.2 7.2-94.3 6.4-112.1-14.8-0.6-47.3-1.2-87.4 3.2-50.3 5.6-123.1 20.4-184.5 59.4l-10.7-16.9c64.8-41.2 141-56.7 193.5-62.4 56.7-6.2 97.8-2.8 99.5-2.7 4.8 0.4 8.7 4.3 9.1 9.1 0.2 2.2 4.6 55.7-6 124.9-6.2 40.8-16.4 78.5-30.3 112.1-17.4 42.3-40.8 78.3-69.4 106.9-63.3 63.4-143.6 97.7-245.5 105.1z" fill="#262626" p-id="1463"></path><path d="M544.3 689.2c-2.4 0-4.8-0.8-6.7-2.5-4.1-3.7-4.5-10-0.8-14.1 17.4-19.5 50.8-60.2 78.7-114.2 28.1-54.6 42.4-106.8 42.4-155.2 0-37.8-8.4-77.2-25-117-13.4-32.1-32-64.6-55.5-96.6-30.6-41.8-61.4-71.7-74.4-83.6-13.1 12-44 42-74.7 83.9-23.4 31.9-42 64.4-55.3 96.5-16.5 39.8-24.9 79.1-24.9 116.8 0 7.9 0.4 15.9 1.2 23.7 0.5 5.5-3.5 10.4-9 10.9s-10.4-3.5-10.9-9c-0.8-8.5-1.2-17.1-1.2-25.7 0-40.4 8.9-82.4 26.5-124.7 14-33.6 33.4-67.5 57.9-100.8 41.5-56.5 82.3-91.2 84.1-92.7 3.7-3.1 9.2-3.1 12.9 0 1.7 1.5 42.6 36.2 84.1 92.7 24.4 33.3 43.9 67.2 57.9 100.8 17.6 42.3 26.5 84.3 26.5 124.7 0 51.6-15 106.9-44.6 164.3-28.9 56-63.5 98.3-81.5 118.4-2.2 2.3-5 3.4-7.7 3.4z" fill="#262626" p-id="1464"></path><path d="M468.8 690.1c-2.7 0-5.4-1.1-7.4-3.2-37.5-41-103.8-124.1-125.9-220.3-1.2-5.4 2.1-10.7 7.5-12 5.4-1.2 10.7 2.1 12 7.5 21 91.7 84.9 171.7 121.1 211.3 3.7 4.1 3.5 10.4-0.6 14.1-1.9 1.7-4.3 2.6-6.7 2.6z" fill="#262626" p-id="1465"></path><path d="M369.4 891.4c-14.1 0-24.8-9.3-27.3-23.6-3.4-19.1 8.8-45.4 43.5-58.1 17.5-6.4 27.6-17.9 30.8-35.2 3.5-18.7-2.7-37.6-4.6-43-3.7-10.1-2.3-20.7 4.1-29.8 13.5-19.6 48.6-31.5 93.7-31.8 57.9-0.5 83.8 16.6 94.1 26.8 8.2 8.2 12.6 17.7 12.6 27.7 0 3.3 0 8.4-20.5 38.1-9.2 13.3-20.4 28.3-24.4 32.8-3.7 4.1-10 4.4-14.1 0.7s-4.4-10-0.7-14.1c7.1-7.9 36.6-49.3 39.7-58.3-0.2-4.3-2.5-8.6-6.6-12.7-13.6-13.5-43.4-21.4-79.9-21-45.5 0.4-70.1 12.7-77.4 23.2-2.7 3.8-3.2 7.5-1.7 11.5 3.1 8.4 9.8 30.5 5.5 53.5-4.5 24.1-19.5 41.5-43.6 50.3-25.5 9.3-32.3 26.5-30.7 35.8 0.8 4.7 3.4 7.1 7.6 7.1 25.1 0 46.7 0 98.1-19 13.5-5 30.5-16 49.2-31.8 4.2-3.6 10.5-3.1 14.1 1.1 3.6 4.2 3.1 10.5-1.1 14.1-14.3 12.1-35.4 28.1-55.2 35.4-54.9 20.3-79.3 20.3-105.2 20.3z" fill="#262626" p-id="1466"></path></svg>