<?xml version="1.0" standalone="no"?><!DOCTYPE svg PUBLIC "-//W3C//DTD SVG 1.1//EN" "http://www.w3.org/Graphics/SVG/1.1/DTD/svg11.dtd"><svg t="1662806438966" class="icon" viewBox="0 0 1024 1024" version="1.1" xmlns="http://www.w3.org/2000/svg" p-id="2779" xmlns:xlink="http://www.w3.org/1999/xlink" width="128" height="128"><path d="M64 192.384C64 121.472 121.408 64 192.384 64h639.232C902.528 64 960 121.408 960 192.384v639.232A128.32 128.32 0 0 1 831.616 960H192.384A128.32 128.32 0 0 1 64 831.616V192.384zM256 256l28.416 28.416 28.48 28.48 28.416 28.416v312.96L256 739.52V768h455.104L768 568.896l-28.416 28.416-28.48 28.48-28.416 28.416H455.04V341.312l28.48-28.416L512 284.416 540.416 256H256z" fill="#FF4029" p-id="2780"></path></svg>