<?xml version="1.0" standalone="no"?><!DOCTYPE svg PUBLIC "-//W3C//DTD SVG 1.1//EN" "http://www.w3.org/Graphics/SVG/1.1/DTD/svg11.dtd"><svg t="1636775175113" class="icon" viewBox="0 0 1024 1024" version="1.1" xmlns="http://www.w3.org/2000/svg" p-id="6033" xmlns:xlink="http://www.w3.org/1999/xlink" width="200" height="200"><defs><style type="text/css"></style></defs><path d="M944.158 36.988H79.74c-22.65 0-41.042 18.442-41.042 41.094v684.666c0 22.598 18.39 41.042 41.042 41.042h864.416c22.65 0 41.042-18.444 41.042-41.042V78.082c0-22.65-18.39-41.094-41.04-41.094z m20 669.548h-95.226l17.092 17.092c4.208 4.26 4.208 11.118 0 15.326l-17.404 17.404-17.404 17.352a10.724 10.724 0 0 1-15.274 0l-48.054-48.054c-5.35-5.35-14.39-3.688-17.508 3.222l-11.74 25.976c-4 8.884-16.78 8.364-20.054-0.78l-17.04-47.534H59.74V66.964h904.42v639.572z" fill="#DFDFDF" p-id="6034"></path><path d="M665.904 961.258H367.646a7.79 7.79 0 0 1-7.194-10.79l50.222-120.484a7.794 7.794 0 0 1 7.194-4.794h197.81c3.146 0 5.982 1.892 7.194 4.794l50.226 120.484a7.798 7.798 0 0 1-7.194 10.79z m-286.57-15.584h274.88l-43.732-104.898h-187.42l-43.728 104.898z" fill="#4A555F" p-id="6035"></path><path d="M411.434 924.278l25.888-62.104h158.9l25.888 62.104z" fill="#DFDFDF" p-id="6036"></path><path d="M799.424 1024h-565.3a7.794 7.794 0 0 1-7.792-7.792v-62.742a7.792 7.792 0 0 1 7.792-7.792h565.3a7.794 7.794 0 0 1 7.792 7.792v62.742a7.794 7.794 0 0 1-7.792 7.792z m-557.508-15.586h549.714v-47.156H241.916v47.156z" fill="#4A555F" p-id="6037"></path><path d="M35.934 1008.414h961.676V1024H35.934z" fill="#4A555F" p-id="6038"></path><path d="M517.528 756.144m-37.862 0a37.862 37.862 0 1 0 75.724 0 37.862 37.862 0 1 0-75.724 0Z" fill="#FFFFFF" p-id="6039"></path><path d="M517.528 801.798c-25.174 0-45.656-20.482-45.656-45.656s20.482-45.656 45.656-45.656 45.656 20.482 45.656 45.656c-0.002 25.174-20.482 45.656-45.656 45.656z m0-75.724c-16.58 0-30.07 13.488-30.07 30.07 0 16.58 13.49 30.07 30.07 30.07s30.07-13.488 30.07-30.07-13.49-30.07-30.07-30.07z" fill="#4A555F" p-id="6040"></path><path d="M944.208 840.78H79.792c-23.342 0-45.28-10.348-60.19-28.39a74.262 74.262 0 0 1-4.53-6.042 78.596 78.596 0 0 1-3.906-6.448 73.532 73.532 0 0 1-3.278-6.776 75.804 75.804 0 0 1-2.608-7.186 75.904 75.904 0 0 1-2.602-11.33 74.174 74.174 0 0 1-0.918-11.858V78.082C1.76 35.028 36.766 0 79.792 0h864.414c43.028 0 78.034 35.028 78.034 78.082v684.666c0 43.026-35.006 78.032-78.032 78.032zM79.792 15.586c-34.432 0-62.448 28.036-62.448 62.498v684.666c0 3.3 0.244 6.478 0.73 9.446a59.74 59.74 0 0 0 2.086 9.114 59.086 59.086 0 0 0 4.688 11.128c1.01 1.88 2.076 3.592 3.186 5.26a60.274 60.274 0 0 0 3.586 4.772c11.932 14.44 29.496 22.726 48.172 22.726h864.414c34.432 0 62.448-28.012 62.448-62.446V78.082c0-34.46-28.016-62.498-62.448-62.498H79.792z" fill="#4A555F" p-id="6041"></path><path d="M843.582 784.698a18.396 18.396 0 0 1-13.18-5.51l-48.024-48.024a2.944 2.944 0 0 0-2.668-0.834 2.974 2.974 0 0 0-2.228 1.752l-11.74 25.978c-3.126 6.946-9.938 11.246-17.706 10.948a18.526 18.526 0 0 1-16.788-12.308l-63.59-177.528a18.094 18.094 0 0 1-1.126-6.358c0-5.98 2.968-11.644 7.934-15.152 4.998-3.528 11.182-4.374 16.956-2.322l177.542 63.598a18.524 18.524 0 0 1 12.348 16.778 18.52 18.52 0 0 1-10.948 17.716l-25.966 11.738a2.968 2.968 0 0 0-1.75 2.22c-0.112 0.594-0.148 1.74 0.858 2.754l48.03 47.978c0.01 0.012 0.026 0.022 0.036 0.036 7.194 7.288 7.178 19.09-0.036 26.308l-34.814 34.766a18.388 18.388 0 0 1-13.14 5.466z m-63.336-70.002c4.886 0 9.63 1.93 13.15 5.448l48.054 48.056c0.792 0.798 1.67 0.912 2.13 0.912a2.94 2.94 0 0 0 2.096-0.88l34.838-34.788c1.172-1.174 1.162-3.114-0.026-4.328l-48.024-47.974a18.714 18.714 0 0 1-5.144-16.592 18.644 18.644 0 0 1 10.66-13.586l25.97-11.74c1.634-0.734 1.822-2.118 1.79-2.878-0.03-0.762-0.334-2.132-2.02-2.732l-177.538-63.594a2.894 2.894 0 0 0-2.73 0.372c-0.838 0.592-1.34 1.498-1.34 2.422 0 0.368 0.05 0.67 0.172 0.982l63.63 177.646c0.594 1.664 1.968 1.964 2.73 1.992 0.74 0.038 2.152-0.158 2.882-1.78l11.744-25.986a18.64 18.64 0 0 1 16.976-10.972z" fill="#4A555F" p-id="6042"></path><path d="M806.256 707.286a36.512 36.512 0 0 0-25.98-10.776 36.92 36.92 0 0 0-29.454 14.72l-40.592-113.282 113.286 40.58a36.84 36.84 0 0 0-14.074 22.718 36.89 36.89 0 0 0 10.074 32.662l37.436 37.386-13.356 13.336-37.34-37.344z" fill="#F58E6F" p-id="6043"></path><path d="M935.014 685.132H839.68a7.788 7.788 0 0 1-5.514-2.288l-1.71-1.714a18.706 18.706 0 0 1-5.134-16.58 18.644 18.644 0 0 1 10.66-13.586l25.97-11.74c1.634-0.734 1.822-2.118 1.79-2.878-0.03-0.762-0.334-2.132-2.02-2.732l-177.538-63.594c-1.552-0.556-2.644 0.216-3.156 0.73-0.508 0.508-1.268 1.592-0.706 3.154l36.112 100.808a7.776 7.776 0 0 1-0.964 7.114 7.798 7.798 0 0 1-6.372 3.306H88.986a7.794 7.794 0 0 1-7.792-7.792V96.162a7.792 7.792 0 0 1 7.792-7.792h846.028a7.794 7.794 0 0 1 7.792 7.792V677.34a7.792 7.792 0 0 1-7.792 7.792z m-91.98-15.586h84.188V103.954H96.778v565.592h603.254l-32.368-90.364c-2.466-6.82-0.812-14.276 4.328-19.432 5.14-5.164 12.602-6.856 19.446-4.404l177.528 63.59a18.524 18.524 0 0 1 12.348 16.778 18.52 18.52 0 0 1-10.948 17.716l-25.966 11.738a2.968 2.968 0 0 0-1.75 2.22c-0.092 0.48-0.134 1.32 0.384 2.158z" fill="#4A555F" p-id="6044"></path><path d="M935.02 685.112h-95.328a7.79 7.79 0 0 1-5.504-2.278l-1.714-1.712a18.722 18.722 0 0 1-5.14-16.596 18.634 18.634 0 0 1 10.66-13.582l25.966-11.738c1.634-0.736 1.826-2.118 1.796-2.878-0.03-0.764-0.334-2.132-2.024-2.732L686.2 569.998c-1.568-0.558-2.644 0.224-3.156 0.732-0.508 0.508-1.274 1.594-0.706 3.156l36.112 100.806a7.776 7.776 0 0 1-0.964 7.114 7.798 7.798 0 0 1-6.372 3.306H88.996a7.794 7.794 0 0 1-7.792-7.792V96.142a7.792 7.792 0 0 1 7.792-7.792H935.02a7.794 7.794 0 0 1 7.792 7.792V677.32a7.794 7.794 0 0 1-7.792 7.792z m-91.976-15.586h84.182V103.934H96.788v565.592h603.254l-32.374-90.364c-2.466-6.822-0.806-14.276 4.332-19.434 5.144-5.164 12.598-6.854 19.446-4.404l177.516 63.59a18.53 18.53 0 0 1 12.358 16.778 18.52 18.52 0 0 1-10.948 17.716l-25.97 11.738a2.974 2.974 0 0 0-1.746 2.22c-0.088 0.482-0.128 1.322 0.388 2.16z" fill="#4A555F" p-id="6045"></path><path d="M175.08 636.794h-15.586V200.458c0-29.934 24.378-54.288 54.34-54.288h596.348c29.964 0 54.34 24.354 54.34 54.288v383.09h-15.586V200.458c0-21.34-17.386-38.702-38.756-38.702H213.836c-21.37 0-38.756 17.362-38.756 38.702v436.336z" fill="#4A555F" p-id="6046"></path><path d="M193.264 280.27v356.522h472l-17.43-52.548c-9.542-28.766 17.862-56.076 46.594-46.436l136.328 45.738V280.27H193.264z" fill="#FFD452" p-id="6047"></path><path d="M167.282 243.732h689.668v15.586H167.282z" fill="#4A555F" p-id="6048"></path><path d="M240.936 203.156m-20.394 0a20.394 20.394 0 1 0 40.788 0 20.394 20.394 0 1 0-40.788 0Z" fill="#F58E6F" p-id="6049"></path><path d="M307.514 203.156m-20.396 0a20.396 20.396 0 1 0 40.792 0 20.396 20.396 0 1 0-40.792 0Z" fill="#F58E6F" p-id="6050"></path><path d="M374.092 203.156m-20.394 0a20.394 20.394 0 1 0 40.788 0 20.394 20.394 0 1 0-40.788 0Z" fill="#F58E6F" p-id="6051"></path><path d="M329.088 477.358h-0.086a7.786 7.786 0 0 1-6.914-4.37l-36.386-74.43 14.002-6.844 29.578 60.502 18.776-36.352a7.796 7.796 0 0 1 13.852 0.002l18.772 36.35 29.578-60.5 14.002 6.844-36.386 74.43a7.788 7.788 0 0 1-6.914 4.37c-3.06-0.078-5.662-1.598-7.012-4.218l-18.964-36.72-18.97 36.722a7.804 7.804 0 0 1-6.928 4.214zM542.606 477.358a7.796 7.796 0 0 1-6.926-4.218l-18.964-36.72-18.964 36.72c-1.354 2.62-4.058 4.16-7.012 4.218a7.8 7.8 0 0 1-6.916-4.37l-36.392-74.43 14.002-6.846 29.582 60.502 18.772-36.35a7.796 7.796 0 0 1 13.852 0l18.772 36.35 29.578-60.5 14.002 6.844-36.386 74.43a7.788 7.788 0 0 1-6.916 4.37h-0.084zM704.338 477.358a7.796 7.796 0 0 1-6.926-4.218l-18.964-36.72-18.964 36.72c-1.354 2.62-3.952 4.16-7.012 4.218a7.786 7.786 0 0 1-6.914-4.37l-36.386-74.43 14.002-6.844 29.578 60.5 18.772-36.35a7.796 7.796 0 0 1 13.852 0l18.772 36.35 29.578-60.5 14.002 6.844-36.386 74.43a7.788 7.788 0 0 1-6.914 4.37h-0.09zM428.866 459.244h15.586v14.968h-15.586zM592.08 459.244h15.586v14.968h-15.586z" fill="#4A555F" p-id="6052"></path></svg>