<?xml version="1.0" standalone="no"?><!DOCTYPE svg PUBLIC "-//W3C//DTD SVG 1.1//EN" "http://www.w3.org/Graphics/SVG/1.1/DTD/svg11.dtd"><svg t="1652856526838" class="icon" viewBox="0 0 1024 1024" version="1.1" xmlns="http://www.w3.org/2000/svg" p-id="3551" xmlns:xlink="http://www.w3.org/1999/xlink" width="30" height="30"><defs><style type="text/css"></style></defs><path d="M11.377778 0h1001.244444v1001.244444H11.377778z" fill="#4abf8a" fill-opacity="0" p-id="3552"></path><path d="M512 50.062222c97.371022 0 187.938133 42.3936 250.311111 114.688a329.181867 329.181867 0 0 1 80.099556 215.722667 330.410667 330.410667 0 0 1-172.828445 290.474667l-7.395555 3.868444V851.057778H550.001778l0.022755 52.064711h-80.099555V851.057778H361.813333v-176.219022l-7.509333-3.936712a330.410667 330.410667 0 0 1-172.396089-275.888355l-0.227555-7.327289-0.091023-7.213511c0-80.190578 28.717511-156.034844 80.008534-215.563378A329.659733 329.659733 0 0 1 512 50.062222z m0 60.074667c-79.758222 0-153.827556 34.702222-204.891022 93.980444a269.1072 269.1072 0 0 0-65.444978 176.355556c0 106.268444 61.895111 201.204622 156.2624 245.168355l5.961956 2.685156 17.999644 7.873422v154.783289h180.224v-154.783289l18.0224-7.873422A270.381511 270.381511 0 0 0 782.336 380.472889c0-65.718044-23.506489-127.726933-65.536-176.469333a269.607822 269.607822 0 0 0-204.8-93.866667z m-102.126933 380.472889h200.248889v60.074666h-70.087112v110.136889h-60.074666V550.684444h-70.087111v-60.074666z" fill="#4abf8a" p-id="3553"></path></svg>