<?xml version="1.0" standalone="no"?><!DOCTYPE svg PUBLIC "-//W3C//DTD SVG 1.1//EN" "http://www.w3.org/Graphics/SVG/1.1/DTD/svg11.dtd"><svg t="1652856433749" class="icon" viewBox="0 0 1024 1024" version="1.1" xmlns="http://www.w3.org/2000/svg" p-id="3378" xmlns:xlink="http://www.w3.org/1999/xlink" width="30" height="30"><defs><style type="text/css"></style></defs><path d="M807.563636 407.272727H698.181818c-13.963636 0-23.272727 9.309091-23.272727 23.272728s9.309091 23.272727 23.272727 23.272727h109.381818c41.890909 0 74.472727 34.909091 74.472728 74.472727v302.545455c0 41.890909-34.909091 74.472727-74.472728 74.472727H216.436364c-41.890909 0-74.472727-34.909091-74.472728-74.472727v-302.545455c0-41.890909 34.909091-74.472727 74.472728-74.472727h111.709091c13.963636 0 23.272727-9.309091 23.272727-23.272727s-9.309091-23.272727-23.272727-23.272728H216.436364c-67.490909 0-121.018182 53.527273-121.018182 121.018182v302.545455c0 67.490909 53.527273 121.018182 121.018182 121.018181h591.127272c67.490909 0 121.018182-53.527273 121.018182-121.018181v-302.545455c0-67.490909-53.527273-121.018182-121.018182-121.018182z" fill="#4abf8a" p-id="3379"></path><path d="M318.836364 311.854545c6.981818 0 11.636364-2.327273 16.290909-6.981818L488.727273 148.945455V744.727273c0 13.963636 9.309091 23.272727 23.272727 23.272727s23.272727-9.309091 23.272727-23.272727V148.945455l153.6 153.6c4.654545 4.654545 11.636364 6.981818 16.290909 6.981818s11.636364-2.327273 16.290909-6.981818c9.309091-9.309091 9.309091-23.272727 0-32.581819l-193.163636-193.163636c-4.654545-4.654545-11.636364-6.981818-16.290909-6.981818-6.981818 0-11.636364 2.327273-16.290909 6.981818L302.545455 269.963636c-9.309091 9.309091-9.309091 23.272727 0 32.581819 2.327273 6.981818 9.309091 9.309091 16.290909 9.30909z" fill="#4abf8a" p-id="3380"></path></svg>