<?xml version="1.0" standalone="no"?><!DOCTYPE svg PUBLIC "-//W3C//DTD SVG 1.1//EN" "http://www.w3.org/Graphics/SVG/1.1/DTD/svg11.dtd"><svg t="1655991811310" class="icon" viewBox="0 0 1024 1024" version="1.1" xmlns="http://www.w3.org/2000/svg" p-id="1230" width="80" height="80" xmlns:xlink="http://www.w3.org/1999/xlink"><defs><style type="text/css"></style></defs><path d="M79.209 159.907h865.179v482.225H79.209z" fill="#3A5CAC" p-id="1231"></path><path d="M107.582 188.28h808.449v425.496H107.582z" fill="#F3797D" p-id="1232"></path><path d="M65.025 642.132h893.552v28.366H65.025z" fill="#3A5CAC" p-id="1233"></path><path d="M447.975 670.505h127.649v28.366H447.975z" fill="#395BAB" p-id="1234"></path><path d="M476.331 698.879h70.916V897.44h-70.916z" fill="#3A5CAC" p-id="1235"></path><path d="M263.601 315.908m-42.535 0a42.535 42.535 0 1 0 85.07 0 42.535 42.535 0 1 0-85.07 0Z" fill="#FFCE54" p-id="1236"></path><path d="M235.252 315.908c0-21.06 15.347-38.43 35.444-41.823-2.321-0.388-4.66-0.713-7.092-0.713-23.491 0-42.535 19.044-42.535 42.535s19.044 42.535 42.535 42.535c2.431 0 4.77-0.326 7.092-0.713-20.097-3.393-35.444-20.763-35.444-41.821z" fill="#FFFFFF" p-id="1237"></path><path d="M79.209 627.945h865.179v14.183H79.209z" fill="" p-id="1238"></path><path d="M447.974 429.401L324.976 613.767h245.993z" fill="#E6E9ED" p-id="1239"></path><path d="M466.893 613.767h104.076l-52.385-78.518z" fill="" p-id="1240"></path><path d="M854.566 613.767H481.077l186.75-283.666z" fill="#F8F8F8" p-id="1241"></path><path d="M533.06 713.048h14.204v184.374H533.06z" fill="" p-id="1242"></path><path d="M476.331 698.879h70.916v14.183h-70.916zM447.975 670.505h127.649v14.183H447.975zM561.434 684.692h14.183v14.183h-14.183zM930.201 159.907h14.183v468.056h-14.183z" fill="" p-id="1243"></path><path d="M107.582 188.28h14.183v425.496h-14.183z" fill="#FFFFFF" p-id="1244"></path><path d="M901.845 188.28h14.183v425.496h-14.183z" fill="" p-id="1245"></path><path d="M164.308 161.469c-3.919 0-7.092-3.767-7.092-8.421v-16.842c0-4.654 3.173-8.421 7.092-8.421 3.919 0 7.092 3.767 7.092 8.421v16.842c-0.001 4.653-3.173 8.421-7.092 8.421z" fill="#3A5CAC" p-id="1246"></path><path d="M192.674 141.967h-56.733c-3.919 0-7.092-3.173-7.092-7.092s3.173-7.092 7.092-7.092h56.733c3.919 0 7.092 3.173 7.092 7.092s-3.173 7.092-7.092 7.092zM391.241 161.469c-3.919 0-7.092-3.767-7.092-8.421v-16.842c0-4.654 3.173-8.421 7.092-8.421 3.919 0 7.092 3.767 7.092 8.421v16.842c-0.001 4.653-3.173 8.421-7.092 8.421z" fill="#3A5CAC" p-id="1247"></path><path d="M419.607 141.967h-56.733c-3.919 0-7.092-3.173-7.092-7.092s3.173-7.092 7.092-7.092h56.733c3.919 0 7.092 3.173 7.092 7.092s-3.173 7.092-7.092 7.092zM632.355 161.469c-3.919 0-7.092-3.767-7.092-8.421v-16.842c0-4.654 3.173-8.421 7.092-8.421s7.092 3.767 7.092 8.421v16.842c0 4.653-3.173 8.421-7.092 8.421z" fill="#3A5CAC" p-id="1248"></path><path d="M660.721 141.967h-56.733c-3.919 0-7.092-3.173-7.092-7.092s3.173-7.092 7.092-7.092h56.733c3.919 0 7.092 3.173 7.092 7.092s-3.172 7.092-7.092 7.092zM859.288 161.469c-3.919 0-7.092-3.767-7.092-8.421v-16.842c0-4.654 3.173-8.421 7.092-8.421s7.092 3.767 7.092 8.421v16.842c0 4.653-3.173 8.421-7.092 8.421z" fill="#3A5CAC" p-id="1249"></path><path d="M887.654 141.967h-56.733c-3.919 0-7.092-3.173-7.092-7.092s3.173-7.092 7.092-7.092h56.733c3.919 0 7.092 3.173 7.092 7.092s-3.173 7.092-7.092 7.092z" fill="#3A5CAC" p-id="1250"></path><path d="M263.59 365.561c-27.37 0-49.641-22.273-49.641-49.641s22.273-49.641 49.641-49.641 49.641 22.273 49.641 49.641-22.271 49.641-49.641 49.641z m0-85.101c-19.549 0-35.458 15.909-35.458 35.458s15.909 35.458 35.458 35.458 35.458-15.909 35.458-35.458-15.907-35.458-35.458-35.458zM263.59 408.111a7.089 7.089 0 0 1-7.092-7.092v-14.183a7.09 7.09 0 0 1 7.092-7.092 7.09 7.09 0 0 1 7.092 7.092v14.183a7.088 7.088 0 0 1-7.092 7.092zM263.59 252.096a7.09 7.09 0 0 1-7.092-7.092v-14.183a7.09 7.09 0 0 1 7.092-7.092 7.09 7.09 0 0 1 7.092 7.092v14.183a7.087 7.087 0 0 1-7.092 7.092zM306.147 396.71a7.095 7.095 0 0 1-6.15-3.547l-7.092-12.286a7.094 7.094 0 0 1 2.596-9.69c3.373-1.967 7.714-0.796 9.688 2.598l7.092 12.286a7.094 7.094 0 0 1-6.134 10.639zM228.139 261.595a7.08 7.08 0 0 1-6.15-3.547l-7.092-12.272c-1.96-3.387-0.796-7.728 2.596-9.69 3.373-1.974 7.714-0.81 9.688 2.598l7.092 12.272c1.96 3.387 0.796 7.728-2.596 9.69a7.004 7.004 0 0 1-3.538 0.949zM337.297 365.561a7.056 7.056 0 0 1-3.533-0.949l-12.3-7.092c-3.394-1.954-4.565-6.295-2.605-9.681 1.947-3.387 6.295-4.565 9.682-2.603l12.3 7.092c3.394 1.952 4.565 6.295 2.605 9.681a7.079 7.079 0 0 1-6.149 3.552zM202.169 287.554a7.082 7.082 0 0 1-3.54-0.949l-12.272-7.077c-3.387-1.96-4.557-6.295-2.598-9.688a7.09 7.09 0 0 1 9.69-2.596l12.272 7.077c3.387 1.96 4.557 6.295 2.598 9.688a7.109 7.109 0 0 1-6.15 3.545zM348.689 323.012h-14.183c-3.919 0-7.092-3.173-7.092-7.092s3.173-7.092 7.092-7.092h14.183c3.919 0 7.092 3.173 7.092 7.092s-3.171 7.092-7.092 7.092zM178.519 323.024a7.095 7.095 0 0 1-7.092-7.085c-0.007-3.919 3.165-7.092 7.085-7.099l14.155-0.014h0.007a7.095 7.095 0 0 1 7.092 7.085c0.007 3.919-3.165 7.092-7.085 7.099l-14.155 0.014h-0.007zM325.012 287.554a7.09 7.09 0 0 1-6.15-3.552c-1.96-3.387-0.789-7.728 2.605-9.681l12.3-7.092c3.394-1.967 7.735-0.782 9.682 2.603 1.96 3.387 0.789 7.728-2.605 9.681l-12.3 7.092a7.047 7.047 0 0 1-3.532 0.949zM189.91 365.574a7.083 7.083 0 0 1-6.143-3.54 7.08 7.08 0 0 1 2.584-9.688l12.272-7.106c3.373-1.995 7.728-0.803 9.69 2.584a7.08 7.08 0 0 1-2.584 9.688l-12.272 7.106a7.012 7.012 0 0 1-3.547 0.956zM299.041 261.595a7.09 7.09 0 0 1-6.136-10.639l7.092-12.286a7.09 7.09 0 0 1 9.688-2.598 7.09 7.09 0 0 1 2.596 9.69l-7.092 12.286a7.085 7.085 0 0 1-6.148 3.547zM221.062 396.724a7.083 7.083 0 0 1-3.525-0.942c-3.394-1.954-4.572-6.288-2.617-9.682l7.063-12.3c1.945-3.401 6.274-4.572 9.681-2.619 3.394 1.954 4.572 6.288 2.617 9.682l-7.063 12.3a7.071 7.071 0 0 1-6.156 3.561z" fill="#FFCE54" p-id="1251"></path></svg>