<?xml version="1.0" standalone="no"?><!DOCTYPE svg PUBLIC "-//W3C//DTD SVG 1.1//EN" "http://www.w3.org/Graphics/SVG/1.1/DTD/svg11.dtd"><svg t="1594427920071" class="icon" viewBox="0 0 1152 1024" version="1.1" xmlns="http://www.w3.org/2000/svg" p-id="7894" xmlns:xlink="http://www.w3.org/1999/xlink" width="112.5" height="100"><defs><style type="text/css"></style></defs><path d="M1021.268 474.924c-9.454-5.242-11.328-11.496-12.762-21.552-4.704-32.976-7.078-67.238-18.194-98.19-71.79-199.914-307.98-286.772-493.698-183.292-54.74 30.5-97.942 72.738-130.986 127.806-6.368-3.016-10.916-5.42-15.648-7.372-60.204-24.842-118.098-20.242-170.662 18.334-51.062 37.474-72.844 89.096-65.352 152.816 0.71 6.05-3.934 15.242-9.028 19.09-79.424 59.984-112.062 156.13-83.804 249.23 27.662 91.138 115.028 159.592 211.216 162.866 60.582 2.062 121.274 1.092 181.918 1.078 168.082-0.042 336.18 1.062 504.24-0.96 105.328-1.268 192.216-73.746 216.424-174.586 23.08-96.148-22.288-194.6-113.664-245.268z m42.214 313.76c-36.46 44.864-84.686 70.506-142.56 71.3-113.748 1.562-227.534 0.46-341.304 0.46 0 1.4-326.056 0.318-327.456 0.308-87.722-0.664-153.478-39.532-190.35-119.99-37.804-82.49-8.008-181.696 68.372-232.212 18.364-12.146 25.01-23.132 20.192-46.272-10.98-52.722 8.906-95.912 52.84-125.962 45.974-31.446 94.844-32.292 144.068-6.166 20.538 10.9 29.214 23.128 44.396-5.054 28.444-52.798 69.114-93.454 121.342-122.588 194.92-108.732 456.74 15.136 460.48 265.394 0.244 16.3 4.824 24.856 19.696 31.788 115.12 53.658 148.912 192.244 70.284 288.994z m-175.578-160.998c-11.696 62.314-69.244 110.192-133.332 110.19-33.906-0.002-64.116-13.09-88.158-35.41-55.394-51.426-142.282-149.96-191.874-186.774-40.112-29.776-83.98-24.666-120.544 7.564-99.992 88.142 31.718 243.55 134.126 154.376 9.096-7.92 15.68-19.086 25.488-25.688 16.368-11.018 41.532-1.768 26.336 21.244-34.716 52.568-98.66 76.394-157.726 58.602-57.794-17.408-97.68-71.936-97.252-140.358 2.45-44.97 24.728-86.12 70.828-111.93 45.15-25.276 92.738-26.292 133.982 4.948C591.36 561.4 640.934 647.94 704.37 686.94c49.116 30.198 108.508 14.726 137.646-35.012 57.66-98.418-69.184-210.032-157.736-126.92-7.978 7.488-13.834 17.864-22.82 23.44-21.95 13.622-34.666-8.226-25.618-20.706 41.406-57.108 100.928-80.88 166.542-56.428 62.858 23.428 98.216 88.732 85.52 156.372z" fill="#707070" p-id="7895"></path></svg>